<svg width="450" height="1111" viewBox="0 0 450 1111" fill="none" xmlns="http://www.w3.org/2000/svg">
<g clip-path="url(#clip0_1312_1150)">
<g filter="url(#filter0_d_1312_1150)">
<path d="M426.252 993.416L406.723 993.875L406.594 993.989C406.066 994.001 405.674 994.122 405.146 994.134C404.882 994.14 404.754 994.254 404.49 994.261C403.962 994.273 403.441 994.508 403.056 994.85C402.927 994.964 402.664 994.971 402.535 995.085C402.278 995.313 401.757 995.548 401.501 995.776L401.372 995.891C401.115 996.119 400.73 996.462 400.608 996.798C400.48 996.912 400.487 997.134 400.359 997.249C400.109 997.699 399.987 998.036 399.737 998.486C399.744 998.709 399.616 998.823 399.623 999.045C399.502 999.381 399.516 999.826 399.53 1000.27L399.401 1000.38L399.92 1016.83C400.033 1020.38 403.419 1023.08 407.642 1022.99C411.864 1022.89 415.075 1020.03 414.963 1016.48L414.921 1015.14L418.849 1018.28C432.531 1029.18 435.204 1046.91 424.933 1060.39L367.226 1014.37C371.952 1005.14 366.73 994.48 355.912 990.619C344.958 986.651 332.288 991.063 327.69 1000.18C323.092 1009.29 328.186 1020.07 339.004 1023.93C344.881 1026.02 351.478 1025.86 356.95 1023.51L414.793 1069.63C399.374 1079 378.341 1077.82 364.524 1066.81L360.595 1063.68L362.179 1063.64C366.401 1063.54 369.612 1060.68 369.5 1057.13C369.388 1053.57 366.001 1050.87 361.779 1050.97L342.25 1051.43C341.722 1051.44 341.329 1051.56 340.802 1051.57L340.409 1051.7C340.017 1051.82 339.753 1051.82 339.361 1051.94L338.84 1052.18C338.447 1052.3 338.319 1052.41 338.062 1052.64C337.284 1053.1 336.514 1053.79 336.007 1054.47C335.75 1054.7 335.757 1054.92 335.5 1055.15L335.25 1055.6C335.129 1055.93 335.136 1056.16 334.879 1056.38L334.758 1056.72C334.636 1057.06 334.65 1057.5 334.657 1057.72L334.793 1057.83L335.312 1074.28C335.424 1077.83 338.811 1080.53 343.033 1080.43C347.256 1080.33 350.467 1077.48 350.355 1073.92L350.313 1072.59L354.241 1075.72C376.05 1093.11 410.622 1092.3 431.302 1073.91C451.982 1055.53 451.063 1026.41 429.254 1009.02L425.325 1005.89L426.909 1005.85C431.131 1005.76 434.342 1002.9 434.23 999.345C433.861 996.018 430.474 993.317 426.252 993.416ZM342.581 1003.39C345.15 1001.1 349.244 1001.12 351.818 1003.17C354.392 1005.22 354.768 1008.77 352.199 1011.05C349.63 1013.34 345.536 1013.32 342.827 1011.16C340.253 1009.11 340.012 1005.67 342.581 1003.39Z" fill="url(#paint0_linear_1312_1150)"/>
</g>
<path d="M344.218 1006.62C308.14 998.75 98.07 978.125 113.478 768.875C128.1 570.285 277.7 541.625 262.293 357.875C250.95 222.598 6 219.875 6 128.375C6 56.4507 66.1273 56.75 59.363 5" stroke="#B5996D" stroke-width="8.25" stroke-linecap="round"/>
</g>
<defs>
<filter id="filter0_d_1312_1150" x="310.247" y="986.157" width="139.733" height="118.596" filterUnits="userSpaceOnUse" color-interpolation-filters="sRGB">
<feFlood flood-opacity="0" result="BackgroundImageFix"/>
<feColorMatrix in="SourceAlpha" type="matrix" values="0 0 0 0 0 0 0 0 0 0 0 0 0 0 0 0 0 0 127 0" result="hardAlpha"/>
<feOffset dx="-6" dy="6.75"/>
<feGaussianBlur stdDeviation="4.875"/>
<feComposite in2="hardAlpha" operator="out"/>
<feColorMatrix type="matrix" values="0 0 0 0 0 0 0 0 0 0 0 0 0 0 0 0 0 0 0.25 0"/>
<feBlend mode="normal" in2="BackgroundImageFix" result="effect1_dropShadow_1312_1150"/>
<feBlend mode="normal" in="SourceGraphic" in2="effect1_dropShadow_1312_1150" result="shape"/>
</filter>
<linearGradient id="paint0_linear_1312_1150" x1="331.869" y1="994.816" x2="415.049" y2="1088.37" gradientUnits="userSpaceOnUse">
<stop stop-color="#B0B0B0"/>
<stop offset="1" stop-color="#5A5A5A"/>
</linearGradient>
<clipPath id="clip0_1312_1150">
<rect width="450" height="1111" fill="white"/>
</clipPath>
</defs>
</svg>
