<svg width="271" height="166" viewBox="0 0 271 166" fill="none" xmlns="http://www.w3.org/2000/svg">
<g clip-path="url(#clip0_1533_4859)">
<g filter="url(#filter0_d_1533_4859)">
<path d="M200.337 39.7918C188.051 27.0491 167.742 26.6976 154.975 39.0068C151.638 42.2243 149.147 45.9883 147.506 50.021C145.937 48.5075 143.907 47.5735 141.673 47.5198C138.783 47.4504 136.165 48.8678 134.402 51.1484C131.125 43.0289 123.929 37.3125 115.448 37.1088C107.338 36.914 100.159 41.8111 96.3437 49.1945C93.2593 45.0582 88.3378 42.8259 83.4252 43.861C78.0558 44.9923 74.2514 49.6994 73.4996 55.3809C64.2463 47.1322 50.653 46.7444 42.3011 54.7969C37.0756 59.8353 35.0771 67.0446 36.2496 74.0746C19.8572 73.4549 12.9457 93.1912 19.389 104.129C23.7747 111.574 30.7772 116.475 39.3994 116.586C44.621 116.653 49.3799 115.536 52.912 113.661C54.8209 123.031 65.6274 130.307 78.7675 130.477C88.8894 130.608 97.7358 126.487 102.248 120.328C105.506 122.757 109.983 124.285 114.941 124.349C119.295 124.405 123.308 123.323 126.469 121.47C127.692 134.245 141.927 144.462 159.442 144.688C176.857 144.912 191.284 135.181 192.976 122.549C200.65 127.051 209.309 127.168 214.499 122.164C217.891 118.894 219.151 114.065 218.44 108.924C226.399 111.97 235.759 110.371 242.309 104.056C251.329 95.359 251.604 81.01 242.924 72.0067C238.746 67.6739 233.256 65.3687 227.678 65.1123C227.934 60.7404 226.435 56.282 223.159 52.8842C218.699 48.2587 212.155 46.8521 206.42 48.7146C204.954 45.5013 202.927 42.4784 200.337 39.7918Z" fill="url(#paint0_linear_1533_4859)"/>
<mask id="mask0_1533_4859" style="mask-type:alpha" maskUnits="userSpaceOnUse" x="17" y="30" width="233" height="115">
<path d="M200.337 39.7922C188.051 27.0495 167.742 26.698 154.975 39.0072C151.638 42.2247 149.147 45.9887 147.506 50.0214C145.937 48.5079 143.907 47.5739 141.673 47.5202C138.783 47.4508 136.165 48.8682 134.402 51.1488C131.125 43.0293 123.929 37.3129 115.448 37.1092C107.338 36.9144 100.159 41.8115 96.3437 49.1949C93.2593 45.0586 88.3378 42.8263 83.4252 43.8614C78.0558 44.9927 74.2514 49.6998 73.4996 55.3813C64.2463 47.1326 50.653 46.7448 42.3011 54.7973C37.0756 59.8357 35.0771 67.045 36.2496 74.075C19.8572 73.4553 12.9457 93.1916 19.389 104.13C23.7747 111.575 30.7772 116.475 39.3994 116.586C44.621 116.654 49.3799 115.536 52.912 113.661C54.8209 123.031 65.6274 130.308 78.7675 130.477C88.8894 130.608 97.7358 126.487 102.248 120.328C105.506 122.757 109.983 124.285 114.941 124.349C119.295 124.406 123.308 123.323 126.469 121.471C127.692 134.246 141.927 144.462 159.442 144.688C176.857 144.913 191.284 135.181 192.976 122.549C200.65 127.051 209.309 127.169 214.499 122.165C217.891 118.895 219.151 114.065 218.44 108.925C226.399 111.97 235.759 110.372 242.309 104.056C251.329 95.3594 251.604 81.0104 242.924 72.0071C238.746 67.6743 233.256 65.3691 227.678 65.1127C227.934 60.7408 226.435 56.2824 223.159 52.8846C218.699 48.2591 212.155 46.8525 206.42 48.715C204.954 45.5017 202.927 42.4788 200.337 39.7922Z" fill="url(#paint1_linear_1533_4859)"/>
</mask>
<g mask="url(#mask0_1533_4859)">
<ellipse cx="66.0214" cy="64.8632" rx="66.0214" ry="64.8632" transform="matrix(-1 0 0 1 226.643 64.17)" fill="url(#paint2_radial_1533_4859)"/>
<ellipse cx="43.7247" cy="42.856" rx="43.7247" ry="42.856" transform="matrix(-1 0 0 1 119.508 78.0687)" fill="url(#paint3_radial_1533_4859)"/>
<ellipse cx="12.1618" cy="11.8723" rx="12.1618" ry="11.8723" transform="matrix(-1 0 0 1 98.0801 43.3201)" fill="url(#paint4_radial_1533_4859)"/>
<ellipse cx="8.39746" cy="8.1079" rx="8.39746" ry="8.1079" transform="matrix(-1 0 0 1 149.623 46.7952)" fill="url(#paint5_radial_1533_4859)"/>
<ellipse cx="17.0845" cy="16.5054" rx="17.0845" ry="16.5054" transform="matrix(-1 0 0 1 230.703 44.479)" fill="url(#paint6_radial_1533_4859)"/>
<ellipse cx="37.3542" cy="36.196" rx="37.3542" ry="36.196" transform="matrix(-1 0 0 1 218.533 17.8388)" fill="url(#paint7_radial_1533_4859)"/>
<ellipse cx="28.9568" cy="28.0881" rx="28.9568" ry="28.0881" transform="matrix(-1 0 0 1 83.6016 38.1078)" fill="url(#paint8_radial_1533_4859)"/>
<ellipse cx="28.9568" cy="28.0881" rx="28.9568" ry="28.0881" transform="matrix(-1 0 0 1 66.2266 68.8014)" fill="url(#paint9_radial_1533_4859)"/>
<ellipse cx="28.9568" cy="28.0881" rx="28.9568" ry="28.0881" transform="matrix(-1 0 0 1 106.182 81.5429)" fill="url(#paint10_radial_1533_4859)"/>
<ellipse cx="36.196" cy="22.0071" rx="36.196" ry="22.0071" transform="matrix(-1 0 0 1 193.639 100.655)" fill="url(#paint11_radial_1533_4859)"/>
<ellipse cx="36.196" cy="18.5323" rx="36.196" ry="18.5323" transform="matrix(-1 0 0 1 107.346 68.8014)" fill="url(#paint12_radial_1533_4859)"/>
<ellipse cx="19.9802" cy="35.0377" rx="19.9802" ry="35.0377" transform="matrix(-0.851187 0.524863 0.524863 0.851187 96.7676 40.4249)" fill="url(#paint13_radial_1533_4859)"/>
<ellipse cx="49.2265" cy="47.7787" rx="49.2265" ry="47.7787" transform="matrix(-1 0 0 1 180.895 35.7926)" fill="url(#paint14_radial_1533_4859)"/>
<ellipse cx="20.5593" cy="19.9802" rx="20.5593" ry="19.9802" transform="matrix(-1 0 0 1 217.387 67.0643)" fill="url(#paint15_radial_1533_4859)"/>
<ellipse cx="33.8794" cy="43.1456" rx="33.8794" ry="43.1456" transform="matrix(-0.835112 0.55008 0.55008 0.835112 166.826 32.8965)" fill="url(#paint16_radial_1533_4859)"/>
<ellipse cx="19.9802" cy="19.401" rx="19.9802" ry="19.401" transform="matrix(-1 0 0 1 135.719 34.0555)" fill="url(#paint17_radial_1533_4859)"/>
<ellipse cx="29.8255" cy="29.2463" rx="29.8255" ry="29.2463" transform="matrix(-1 0 0 1 59.8516 86.1761)" fill="url(#paint18_radial_1533_4859)"/>
<ellipse cx="27.5089" cy="26.9298" rx="27.5089" ry="26.9298" transform="matrix(-1 0 0 1 236.49 97.1797)" fill="url(#paint19_radial_1533_4859)"/>
<ellipse cx="49.2265" cy="48.0682" rx="49.2265" ry="48.0682" transform="matrix(-1 0 0 1 282.82 57.2197)" fill="url(#paint20_radial_1533_4859)"/>
<ellipse cx="33.8794" cy="33.3003" rx="33.8794" ry="33.3003" transform="matrix(-1 0 0 1 146.727 87.3351)" fill="url(#paint21_radial_1533_4859)"/>
<ellipse cx="19.9802" cy="19.401" rx="19.9802" ry="19.401" transform="matrix(-1 0 0 1 248.078 67.6442)" fill="url(#paint22_radial_1533_4859)"/>
<ellipse cx="15.3471" cy="14.768" rx="15.3471" ry="14.768" transform="matrix(-1 0 0 1 218.533 96.6006)" fill="url(#paint23_radial_1533_4859)"/>
<ellipse cx="13.8992" cy="13.3201" rx="13.8992" ry="13.3201" transform="matrix(-1 0 0 1 128.191 98.9177)" fill="url(#paint24_radial_1533_4859)"/>
</g>
</g>
</g>
<defs>
<filter id="filter0_d_1533_4859" x="-24.5" y="-17.5" width="315.258" height="197.692" filterUnits="userSpaceOnUse" color-interpolation-filters="sRGB">
<feFlood flood-opacity="0" result="BackgroundImageFix"/>
<feColorMatrix in="SourceAlpha" type="matrix" values="0 0 0 0 0 0 0 0 0 0 0 0 0 0 0 0 0 0 127 0" result="hardAlpha"/>
<feOffset dy="-6"/>
<feGaussianBlur stdDeviation="20.75"/>
<feComposite in2="hardAlpha" operator="out"/>
<feColorMatrix type="matrix" values="0 0 0 0 0 0 0 0 0 0 0 0 0 0 0 0 0 0 0.12 0"/>
<feBlend mode="normal" in2="BackgroundImageFix" result="effect1_dropShadow_1533_4859"/>
<feBlend mode="normal" in="SourceGraphic" in2="effect1_dropShadow_1533_4859" result="shape"/>
</filter>
<linearGradient id="paint0_linear_1533_4859" x1="102.76" y1="30" x2="102.76" y2="144.691" gradientUnits="userSpaceOnUse">
<stop offset="0.450696" stop-color="#FEFDE9"/>
<stop offset="1" stop-color="#DCDCDC"/>
</linearGradient>
<linearGradient id="paint1_linear_1533_4859" x1="102.76" y1="30.0004" x2="102.76" y2="144.692" gradientUnits="userSpaceOnUse">
<stop offset="0.450696" stop-color="white"/>
<stop offset="1" stop-color="#DCDCDC"/>
</linearGradient>
<radialGradient id="paint2_radial_1533_4859" cx="0" cy="0" r="1" gradientUnits="userSpaceOnUse" gradientTransform="translate(66.0214 64.8632) rotate(90) scale(64.8632 66.0214)">
<stop stop-color="#BCBCBC"/>
<stop offset="1" stop-color="#D9D9D9" stop-opacity="0"/>
</radialGradient>
<radialGradient id="paint3_radial_1533_4859" cx="0" cy="0" r="1" gradientUnits="userSpaceOnUse" gradientTransform="translate(43.7247 42.856) rotate(90) scale(42.856 43.7247)">
<stop stop-color="#BCBCBC"/>
<stop offset="1" stop-color="#D9D9D9" stop-opacity="0"/>
</radialGradient>
<radialGradient id="paint4_radial_1533_4859" cx="0" cy="0" r="1" gradientUnits="userSpaceOnUse" gradientTransform="translate(12.1618 11.8723) rotate(90.3887) scale(11.8725 12.1621)">
<stop stop-color="white"/>
<stop offset="1" stop-color="#D9D9D9" stop-opacity="0"/>
</radialGradient>
<radialGradient id="paint5_radial_1533_4859" cx="0" cy="0" r="1" gradientUnits="userSpaceOnUse" gradientTransform="translate(8.39746 8.1079) rotate(90.393) scale(8.10809 8.39765)">
<stop stop-color="white"/>
<stop offset="1" stop-color="#D9D9D9" stop-opacity="0"/>
</radialGradient>
<radialGradient id="paint6_radial_1533_4859" cx="0" cy="0" r="1" gradientUnits="userSpaceOnUse" gradientTransform="translate(17.0845 16.5054) rotate(90.3927) scale(16.5057 17.0849)">
<stop stop-color="white"/>
<stop offset="1" stop-color="#D9D9D9" stop-opacity="0"/>
</radialGradient>
<radialGradient id="paint7_radial_1533_4859" cx="0" cy="0" r="1" gradientUnits="userSpaceOnUse" gradientTransform="translate(37.3542 36.196) rotate(90.3916) scale(36.1968 37.3551)">
<stop stop-color="white"/>
<stop offset="1" stop-color="#D9D9D9" stop-opacity="0"/>
</radialGradient>
<radialGradient id="paint8_radial_1533_4859" cx="0" cy="0" r="1" gradientUnits="userSpaceOnUse" gradientTransform="translate(28.9568 28.0881) rotate(90.3912) scale(28.0887 28.9574)">
<stop stop-color="white"/>
<stop offset="1" stop-color="#D9D9D9" stop-opacity="0"/>
</radialGradient>
<radialGradient id="paint9_radial_1533_4859" cx="0" cy="0" r="1" gradientUnits="userSpaceOnUse" gradientTransform="translate(28.9568 28.0881) rotate(90.3912) scale(28.0887 28.9574)">
<stop offset="0.309477" stop-color="white"/>
<stop offset="1" stop-color="#D9D9D9" stop-opacity="0"/>
</radialGradient>
<radialGradient id="paint10_radial_1533_4859" cx="0" cy="0" r="1" gradientUnits="userSpaceOnUse" gradientTransform="translate(28.9568 28.0881) rotate(90.3912) scale(28.0887 28.9574)">
<stop offset="0.278871" stop-color="white" stop-opacity="0.85"/>
<stop offset="1" stop-color="#D9D9D9" stop-opacity="0"/>
</radialGradient>
<radialGradient id="paint11_radial_1533_4859" cx="0" cy="0" r="1" gradientUnits="userSpaceOnUse" gradientTransform="translate(36.196 22.0071) rotate(90.6241) scale(22.0085 36.1955)">
<stop offset="0.278871" stop-color="white" stop-opacity="0.85"/>
<stop offset="1" stop-color="#D9D9D9" stop-opacity="0"/>
</radialGradient>
<radialGradient id="paint12_radial_1533_4859" cx="0" cy="0" r="1" gradientUnits="userSpaceOnUse" gradientTransform="translate(36.196 18.5323) rotate(91.2169) scale(13.6343 26.6208)">
<stop offset="0.22453" stop-color="white" stop-opacity="0.85"/>
<stop offset="1" stop-color="#D9D9D9" stop-opacity="0"/>
</radialGradient>
<radialGradient id="paint13_radial_1533_4859" cx="0" cy="0" r="1" gradientUnits="userSpaceOnUse" gradientTransform="translate(19.9802 35.0377) rotate(90.3554) scale(25.772 14.6977)">
<stop offset="0.22453" stop-color="white" stop-opacity="0.85"/>
<stop offset="1" stop-color="#D9D9D9" stop-opacity="0"/>
</radialGradient>
<radialGradient id="paint14_radial_1533_4859" cx="0" cy="0" r="1" gradientUnits="userSpaceOnUse" gradientTransform="translate(49.2265 47.7787) rotate(90.642) scale(35.1452 36.2102)">
<stop offset="0.22453" stop-color="white" stop-opacity="0.85"/>
<stop offset="1" stop-color="#D9D9D9" stop-opacity="0"/>
</radialGradient>
<radialGradient id="paint15_radial_1533_4859" cx="0" cy="0" r="1" gradientUnits="userSpaceOnUse" gradientTransform="translate(20.5593 19.9802) rotate(90.6412) scale(14.6971 15.1231)">
<stop offset="0.22453" stop-color="white" stop-opacity="0.85"/>
<stop offset="1" stop-color="#D9D9D9" stop-opacity="0"/>
</radialGradient>
<radialGradient id="paint16_radial_1533_4859" cx="0" cy="0" r="1" gradientUnits="userSpaceOnUse" gradientTransform="translate(33.8794 43.1456) rotate(90.4893) scale(31.7363 24.9218)">
<stop offset="0.22453" stop-color="white" stop-opacity="0.85"/>
<stop offset="1" stop-color="#D9D9D9" stop-opacity="0"/>
</radialGradient>
<radialGradient id="paint17_radial_1533_4859" cx="0" cy="0" r="1" gradientUnits="userSpaceOnUse" gradientTransform="translate(19.9802 19.401) rotate(90.3908) scale(19.4015 19.9806)">
<stop offset="0.278871" stop-color="white" stop-opacity="0.85"/>
<stop offset="1" stop-color="#D9D9D9" stop-opacity="0"/>
</radialGradient>
<radialGradient id="paint18_radial_1533_4859" cx="0" cy="0" r="1" gradientUnits="userSpaceOnUse" gradientTransform="translate(29.8255 29.2463) rotate(90) scale(29.2463 29.8255)">
<stop stop-color="#BCBCBC"/>
<stop offset="1" stop-color="#D9D9D9" stop-opacity="0"/>
</radialGradient>
<radialGradient id="paint19_radial_1533_4859" cx="0" cy="0" r="1" gradientUnits="userSpaceOnUse" gradientTransform="translate(27.5089 26.9298) rotate(90) scale(26.9298 27.5089)">
<stop stop-color="#BCBCBC"/>
<stop offset="1" stop-color="#D9D9D9" stop-opacity="0"/>
</radialGradient>
<radialGradient id="paint20_radial_1533_4859" cx="0" cy="0" r="1" gradientUnits="userSpaceOnUse" gradientTransform="translate(49.2265 48.0682) rotate(90) scale(48.0682 49.2265)">
<stop stop-color="#BCBCBC"/>
<stop offset="1" stop-color="#D9D9D9" stop-opacity="0"/>
</radialGradient>
<radialGradient id="paint21_radial_1533_4859" cx="0" cy="0" r="1" gradientUnits="userSpaceOnUse" gradientTransform="translate(33.8794 33.3003) rotate(90) scale(33.3003 33.8794)">
<stop stop-color="#BCBCBC"/>
<stop offset="1" stop-color="#D9D9D9" stop-opacity="0"/>
</radialGradient>
<radialGradient id="paint22_radial_1533_4859" cx="0" cy="0" r="1" gradientUnits="userSpaceOnUse" gradientTransform="translate(19.9802 19.401) rotate(90.3908) scale(19.4015 19.9806)">
<stop offset="0.278871" stop-color="white" stop-opacity="0.85"/>
<stop offset="1" stop-color="#D9D9D9" stop-opacity="0"/>
</radialGradient>
<radialGradient id="paint23_radial_1533_4859" cx="0" cy="0" r="1" gradientUnits="userSpaceOnUse" gradientTransform="translate(15.3471 14.768) rotate(90.3943) scale(14.7683 15.3474)">
<stop offset="0.278871" stop-color="white" stop-opacity="0.85"/>
<stop offset="1" stop-color="#D9D9D9" stop-opacity="0"/>
</radialGradient>
<radialGradient id="paint24_radial_1533_4859" cx="0" cy="0" r="1" gradientUnits="userSpaceOnUse" gradientTransform="translate(13.8992 13.3201) rotate(90.3959) scale(13.3204 13.8996)">
<stop offset="0.278871" stop-color="white" stop-opacity="0.85"/>
<stop offset="1" stop-color="#D9D9D9" stop-opacity="0"/>
</radialGradient>
<clipPath id="clip0_1533_4859">
<rect width="271" height="166" fill="white"/>
</clipPath>
</defs>
</svg>
