<svg width="136" height="25" viewBox="0 0 136 25" fill="none" xmlns="http://www.w3.org/2000/svg">
<path fill-rule="evenodd" clip-rule="evenodd" d="M5.65625 19.2L-1.05119e-07 19.2L0 18.1895L5.65625 18.1895L5.65625 19.2ZM39.5937 19.2L28.2812 19.2L28.2812 18.1895L39.5937 18.1895L39.5937 19.2ZM73.5312 19.2L62.2187 19.2L62.2187 18.1895L73.5312 18.1895L73.5312 19.2ZM107.469 19.2L96.1562 19.2L96.1562 18.1895L107.469 18.1895L107.469 19.2ZM135.75 19.2L130.094 19.2L130.094 18.1895L135.75 18.1895L135.75 19.2Z" fill="white" fill-opacity="0.45"/>
<path fill-rule="evenodd" clip-rule="evenodd" d="M135.75 24.2534L-2.97837e-07 24.2534L0 21.3901L135.75 21.3901L135.75 24.2534Z" fill="white" fill-opacity="0.45"/>
<path d="M7.3673 15.8319C5.83606 15.8319 4.5215 15.5075 3.42363 14.8586C2.32576 14.1953 1.48068 13.2798 0.88841 12.1118C0.296137 10.9295 0 9.5669 0 8.02408C0 6.48127 0.296137 5.11869 0.88841 3.93634C1.48068 2.754 2.32576 1.83119 3.42363 1.16793C4.5215 0.50466 5.83606 0.173026 7.3673 0.173026C9.18746 0.173026 10.6754 0.627219 11.831 1.53561C13.0011 2.42957 13.7306 3.69122 14.0195 5.32055H10.9643C10.7765 4.49868 10.372 3.85704 9.75084 3.39564C9.14413 2.91982 8.33517 2.6819 7.32397 2.6819C5.92274 2.6819 4.82486 3.15773 4.03035 4.10937C3.23584 5.06101 2.83858 6.36592 2.83858 8.02408C2.83858 9.68225 3.23584 10.9872 4.03035 11.9388C4.82486 12.876 5.92274 13.3446 7.32397 13.3446C8.33517 13.3446 9.14413 13.1284 9.75084 12.6958C10.372 12.2488 10.7765 11.636 10.9643 10.8574H14.0195C13.7306 12.4146 13.0011 13.633 11.831 14.5126C10.6754 15.3921 9.18746 15.8319 7.3673 15.8319Z" fill="white" fill-opacity="0.45"/>
<path d="M21.5668 15.8319C20.5267 15.8319 19.5877 15.594 18.7499 15.1182C17.9265 14.6423 17.2692 13.9863 16.7781 13.15C16.3013 12.2993 16.063 11.3188 16.063 10.2085C16.063 9.09829 16.3086 8.12502 16.7997 7.28872C17.2909 6.43801 17.9482 5.77474 18.7716 5.29892C19.6094 4.8231 20.5484 4.58519 21.5885 4.58519C22.6141 4.58519 23.5386 4.8231 24.362 5.29892C25.1999 5.77474 25.8572 6.43801 26.3339 7.28872C26.825 8.12502 27.0706 9.09829 27.0706 10.2085C27.0706 11.3188 26.825 12.2993 26.3339 13.15C25.8572 13.9863 25.1999 14.6423 24.362 15.1182C23.5242 15.594 22.5924 15.8319 21.5668 15.8319ZM21.5668 13.4311C22.2891 13.4311 22.9175 13.1644 23.452 12.6309C23.9865 12.083 24.2537 11.2755 24.2537 10.2085C24.2537 9.14154 23.9865 8.3413 23.452 7.8078C22.9175 7.25989 22.2963 6.98593 21.5885 6.98593C20.8517 6.98593 20.2161 7.25989 19.6816 7.8078C19.1616 8.3413 18.9016 9.14154 18.9016 10.2085C18.9016 11.2755 19.1616 12.083 19.6816 12.6309C20.2161 13.1644 20.8445 13.4311 21.5668 13.4311Z" fill="white" fill-opacity="0.45"/>
<path d="M34.4909 15.8319C33.4797 15.8319 32.5768 15.5868 31.7823 15.0965C30.9878 14.6063 30.3594 13.9358 29.8972 13.0851C29.4349 12.2344 29.2038 11.2683 29.2038 10.1869C29.2038 9.1055 29.4349 8.14664 29.8972 7.31035C30.3594 6.45964 30.9878 5.79637 31.7823 5.32055C32.5768 4.83031 33.4797 4.58519 34.4909 4.58519C35.2999 4.58519 36.0077 4.73659 36.6144 5.03938C37.2211 5.34218 37.7123 5.76754 38.0879 6.31545V0H40.8615V15.5723H38.3912L38.0879 14.0367C37.7412 14.5126 37.2789 14.9307 36.7011 15.2912C36.1377 15.6516 35.401 15.8319 34.4909 15.8319ZM35.076 13.4095C35.9716 13.4095 36.7011 13.1139 37.2645 12.5228C37.8423 11.9172 38.1312 11.1458 38.1312 10.2085C38.1312 9.27131 37.8423 8.50711 37.2645 7.91594C36.7011 7.31035 35.9716 7.00756 35.076 7.00756C34.1948 7.00756 33.4653 7.30314 32.8874 7.89431C32.3096 8.48549 32.0207 9.24968 32.0207 10.1869C32.0207 11.1241 32.3096 11.8955 32.8874 12.5011C33.4653 13.1067 34.1948 13.4095 35.076 13.4095Z" fill="white" fill-opacity="0.45"/>
<path d="M48.9079 15.8319C47.8245 15.8319 46.8639 15.6012 46.026 15.1398C45.1882 14.6784 44.5309 14.0295 44.0542 13.1932C43.5775 12.3569 43.3391 11.3909 43.3391 10.2951C43.3391 9.1848 43.5702 8.19711 44.0325 7.33198C44.5092 6.46685 45.1593 5.79637 45.9827 5.32055C46.8205 4.83031 47.8028 4.58519 48.9296 4.58519C49.9841 4.58519 50.9159 4.81589 51.7248 5.2773C52.5338 5.7387 53.1622 6.37313 53.61 7.18058C54.0723 7.97362 54.3034 8.86038 54.3034 9.84086C54.3034 9.99946 54.2962 10.1653 54.2817 10.3383C54.2817 10.5113 54.2745 10.6916 54.2601 10.879H46.091C46.1488 11.7153 46.4377 12.3714 46.9578 12.8472C47.4923 13.323 48.1351 13.5609 48.8863 13.5609C49.4496 13.5609 49.9191 13.4384 50.2947 13.1932C50.6848 12.9337 50.9737 12.6021 51.1615 12.1983H53.9784C53.7761 12.876 53.4367 13.496 52.96 14.0584C52.4977 14.6063 51.9199 15.0388 51.2265 15.3561C50.5475 15.6733 49.7747 15.8319 48.9079 15.8319ZM48.9296 6.83453C48.2507 6.83453 47.6512 7.02918 47.1311 7.41849C46.6111 7.79338 46.2788 8.37014 46.1344 9.14875H51.4865C51.4432 8.44223 51.1831 7.8799 50.7064 7.46175C50.2297 7.0436 49.6374 6.83453 48.9296 6.83453Z" fill="white" fill-opacity="0.45"/>
<path d="M61.8644 15.5723V0.432565H65.158L69.9901 10.0355L74.7572 0.432565H78.0508V15.5723H75.2772V5.1259L71.0518 13.4095H68.8633L64.6379 5.1259V15.5723H61.8644Z" fill="white" fill-opacity="0.45"/>
<path d="M82.4238 3.17935C81.9182 3.17935 81.4992 3.02796 81.167 2.72516C80.8492 2.42236 80.6903 2.04027 80.6903 1.57886C80.6903 1.11746 80.8492 0.74257 81.167 0.454193C81.4992 0.151398 81.9182 0 82.4238 0C82.9294 0 83.3411 0.151398 83.6589 0.454193C83.9911 0.74257 84.1572 1.11746 84.1572 1.57886C84.1572 2.04027 83.9911 2.42236 83.6589 2.72516C83.3411 3.02796 82.9294 3.17935 82.4238 3.17935ZM81.037 15.5723V4.84473H83.8105V15.5723H81.037Z" fill="white" fill-opacity="0.45"/>
<path d="M86.7055 15.5723V0H89.4791V15.5723H86.7055Z" fill="white" fill-opacity="0.45"/>
<path d="M97.5352 15.8319C96.4518 15.8319 95.4911 15.6012 94.6533 15.1398C93.8154 14.6784 93.1581 14.0295 92.6814 13.1932C92.2047 12.3569 91.9664 11.3909 91.9664 10.2951C91.9664 9.1848 92.1975 8.19711 92.6598 7.33198C93.1365 6.46685 93.7865 5.79637 94.6099 5.32055C95.4478 4.83031 96.4301 4.58519 97.5569 4.58519C98.6114 4.58519 99.5431 4.81589 100.352 5.2773C101.161 5.7387 101.789 6.37313 102.237 7.18058C102.7 7.97362 102.931 8.86038 102.931 9.84086C102.931 9.99946 102.923 10.1653 102.909 10.3383C102.909 10.5113 102.902 10.6916 102.887 10.879H94.7183C94.7761 11.7153 95.065 12.3714 95.585 12.8472C96.1195 13.323 96.7623 13.5609 97.5135 13.5609C98.0769 13.5609 98.5464 13.4384 98.922 13.1932C99.312 12.9337 99.6009 12.6021 99.7887 12.1983H102.606C102.403 12.876 102.064 13.496 101.587 14.0584C101.125 14.6063 100.547 15.0388 99.8537 15.3561C99.1748 15.6733 98.4019 15.8319 97.5352 15.8319ZM97.5569 6.83453C96.8779 6.83453 96.2784 7.02918 95.7584 7.41849C95.2383 7.79338 94.9061 8.37014 94.7616 9.14875H100.114C100.07 8.44223 99.8104 7.8799 99.3337 7.46175C98.857 7.0436 98.2647 6.83453 97.5569 6.83453Z" fill="white" fill-opacity="0.45"/>
<path d="M109.705 15.8319C108.752 15.8319 107.914 15.6805 107.192 15.3777C106.47 15.0605 105.892 14.6279 105.458 14.08C105.025 13.5321 104.765 12.8977 104.678 12.1767H107.474C107.56 12.5949 107.791 12.9553 108.167 13.2581C108.557 13.5465 109.055 13.6907 109.662 13.6907C110.269 13.6907 110.709 13.5681 110.984 13.323C111.273 13.0779 111.417 12.7967 111.417 12.4795C111.417 12.0181 111.215 11.7081 110.811 11.5495C110.406 11.3765 109.843 11.2106 109.12 11.052C108.658 10.9511 108.189 10.8285 107.712 10.6844C107.235 10.5402 106.795 10.3599 106.39 10.1437C106 9.91295 105.682 9.62457 105.437 9.27852C105.191 8.91805 105.068 8.47828 105.068 7.9592C105.068 7.00756 105.444 6.20731 106.195 5.55846C106.961 4.90961 108.03 4.58519 109.402 4.58519C110.673 4.58519 111.685 4.88078 112.436 5.47195C113.201 6.06312 113.656 6.87779 113.801 7.91594H111.179C111.02 7.12291 110.421 6.72639 109.38 6.72639C108.86 6.72639 108.456 6.82732 108.167 7.02918C107.893 7.23105 107.755 7.48338 107.755 7.78617C107.755 8.10339 107.965 8.35572 108.384 8.54316C108.803 8.73061 109.359 8.90363 110.052 9.06224C110.803 9.23527 111.49 9.42992 112.111 9.6462C112.746 9.84807 113.252 10.1581 113.627 10.5762C114.003 10.9799 114.191 11.5639 114.191 12.3281C114.205 12.9914 114.032 13.5898 113.671 14.1233C113.31 14.6567 112.79 15.0749 112.111 15.3777C111.432 15.6805 110.63 15.8319 109.705 15.8319Z" fill="white" fill-opacity="0.45"/>
</svg>
