<svg width="19" height="23" viewBox="0 0 19 23" fill="none" xmlns="http://www.w3.org/2000/svg">
<path d="M12.878 3.37795V1.12598C12.878 0.494588 12.4329 0 11.8646 0H7.13549C6.56725 0 6.12211 0.494588 6.12211 1.12598V3.37795H0.492188V4.87926H18.5079V3.37795H12.878ZM7.62342 1.50131H11.3767V3.37795H7.62342V1.50131Z" fill="black"/>
<path fill-rule="evenodd" clip-rule="evenodd" d="M2.31255 22.0695C2.10517 21.8584 1.98997 21.5737 1.99222 21.2778V6.26465H17.0053V21.2778C17.0076 21.5737 16.8924 21.8584 16.685 22.0695C16.4776 22.2805 16.195 22.4008 15.8991 22.4038H3.09845C2.80256 22.4008 2.51993 22.2805 2.31255 22.0695ZM15.504 7.76596H3.49353V20.9024H15.504V7.76596ZM5.37149 9.26726H6.8728V18.6505H5.37149V9.26726ZM10.2494 9.26726H8.74809V18.6505H10.2494V9.26726ZM12.126 9.26726H13.6274V18.6505H12.126V9.26726Z" fill="black"/>
</svg>
