<svg width="180" height="71" viewBox="0 0 180 71" fill="none" xmlns="http://www.w3.org/2000/svg">
<path fill-rule="evenodd" clip-rule="evenodd" d="M108.396 16.2173L94.7303 29.8056H93.1166C93.1166 26.2207 90.1637 23.3187 86.5585 23.3187C85.9062 23.3187 85.2538 23.387 84.6701 23.5918L108.396 0L138.371 29.8056H122.027L108.396 16.2173ZM80.0348 29.8056C80.0348 29.1569 80.1035 28.5082 80.3095 27.9278L78.3867 29.8056H80.0348Z" fill="#5653FF" fill-opacity="0.7"/>
<path fill-rule="evenodd" clip-rule="evenodd" d="M71.1221 22.3391L63.7139 29.8056H47.4639L71.1221 5.96106L88.5329 23.5434C87.9525 23.3369 87.3039 23.2681 86.6552 23.2681C83.0707 23.2681 80.1689 26.1928 80.1689 29.8056H78.5302L71.1221 22.3391ZM94.7803 29.8056L92.8685 27.9131C93.0733 28.4981 93.1758 29.1518 93.1758 29.8056H94.7803Z" fill="#FF3030" fill-opacity="0.7"/>
<path fill-rule="evenodd" clip-rule="evenodd" d="M93.1557 29.8056C93.1557 26.1922 90.196 23.267 86.5826 23.267C82.9691 23.267 80.0439 26.1922 80.0439 29.8056H69.4443C69.4443 20.3418 77.1187 12.6674 86.5826 12.6674C96.0464 12.6674 103.721 20.3418 103.721 29.8056H93.1557Z" fill="#FFCD1B" fill-opacity="0.7"/>
<path d="M42.3285 43.1101C42.674 43.1101 42.9398 43.2696 43.1258 43.5885C43.3384 43.9074 43.4447 44.3459 43.4447 44.904C43.4447 45.9405 43.1923 46.7644 42.6873 47.3757C40.0562 50.5914 37.2524 52.1993 34.2758 52.1993C31.6979 52.1993 29.6382 51.2027 28.0967 49.2094C26.5553 47.2162 25.7845 44.3592 25.7845 40.6385C25.7845 39.7349 25.8244 38.8313 25.9041 37.9276C24.1501 38.2466 22.2366 38.4858 20.1636 38.6452C18.7816 38.7515 17.8381 38.818 17.3332 38.8445C16.8016 41.5554 16.0575 44.8775 15.1007 48.8108C14.5426 51.123 13.4795 52.2791 11.9115 52.2791C10.2106 52.2791 9.36016 51.5083 9.36016 49.9669C9.36016 49.6214 9.4266 49.143 9.55948 48.5317C10.4631 44.8907 11.1807 41.8078 11.7122 39.2831L9.79867 39.3628C8.92164 39.3628 8.2838 39.2166 7.88515 38.9243C7.4865 38.6054 7.28718 38.1004 7.28718 37.4094C7.28718 36.5324 7.53965 35.8945 8.04461 35.4959C8.54957 35.0707 9.38673 34.8315 10.5561 34.7783L12.669 34.6986C13.3599 30.9513 13.7054 28.0943 13.7054 26.1276C13.7054 24.8785 13.5194 24.028 13.1473 23.5762C12.7753 23.1244 12.2836 22.8985 11.6723 22.8985C9.81196 22.8985 7.7124 24.4533 5.37366 27.5627C5.02816 28.0145 4.6428 28.2405 4.21757 28.2405C3.8455 28.2405 3.52658 28.0677 3.26081 27.7222C2.99504 27.3767 2.86216 26.9382 2.86216 26.4067C2.86216 25.5828 3.19437 24.7058 3.85879 23.7756C5.02816 22.1544 6.50316 20.8256 8.2838 19.7891C10.0644 18.726 11.8717 18.1945 13.7054 18.1945C15.4329 18.1945 16.7618 18.7924 17.6919 19.9884C18.6487 21.1578 19.1271 22.9916 19.1271 25.4898C19.1271 27.6956 18.8082 30.6855 18.1703 34.4594L22.0771 34.2601C23.7514 34.1803 25.1866 34.0475 26.3825 33.8614C26.8609 30.938 27.5918 28.2006 28.5751 25.6492C29.5584 23.0979 30.781 21.0249 32.2427 19.4303C33.7044 17.8357 35.3389 17.0384 37.1461 17.0384C38.4749 17.0384 39.5247 17.5699 40.2954 18.633C41.0661 19.6695 41.4515 21.0382 41.4515 22.7391C41.4515 29.3301 38.0895 33.9013 31.3656 36.4526C31.2859 37.5157 31.2461 38.6186 31.2461 39.7614C31.2461 42.552 31.5915 44.532 32.2825 45.7013C32.9735 46.8707 33.9436 47.4554 35.1927 47.4554C36.2823 47.4554 37.279 47.1763 38.1826 46.6182C39.0862 46.0335 40.1094 45.0502 41.2522 43.6682C41.5711 43.2961 41.9299 43.1101 42.3285 43.1101ZM36.9467 20.5066C36.3621 20.5066 35.7375 21.0382 35.0731 22.1012C34.4353 23.1643 33.824 24.6127 33.2393 26.4465C32.6546 28.2803 32.1895 30.2869 31.844 32.4661C33.9702 31.5891 35.5382 30.34 36.5481 28.7188C37.558 27.0977 38.063 25.0114 38.063 22.46C38.063 21.8488 37.9567 21.3704 37.744 21.0249C37.5314 20.6794 37.2657 20.5066 36.9467 20.5066ZM45.1209 52.1993C43.4732 52.1993 42.1576 51.6013 41.1743 50.4054C40.191 49.2094 39.6993 47.6414 39.6993 45.7013C39.6993 43.5752 40.191 41.5687 41.1743 39.6817C42.1576 37.7682 43.4599 36.24 45.0811 35.0972C46.7288 33.9279 48.4696 33.3432 50.3034 33.3432C50.8881 33.3432 51.2734 33.4628 51.4595 33.702C51.6721 33.9146 51.8448 34.3132 51.9777 34.8979C52.5358 34.7916 53.1205 34.7384 53.7318 34.7384C55.034 34.7384 55.6852 35.2035 55.6852 36.1337C55.6852 36.6918 55.4858 38.0207 55.0872 40.1202C54.4759 43.1765 54.1703 45.3027 54.1703 46.4986C54.1703 46.8973 54.2633 47.2162 54.4494 47.4554C54.662 47.6946 54.9277 47.8142 55.2467 47.8142C55.7516 47.8142 56.3629 47.4953 57.0804 46.8574C57.798 46.193 58.7681 45.1299 59.9906 43.6682C60.3095 43.2961 60.6683 43.1101 61.0669 43.1101C61.4124 43.1101 61.6782 43.2696 61.8642 43.5885C62.0769 43.9074 62.1832 44.3459 62.1832 44.904C62.1832 45.9671 61.9307 46.791 61.4257 47.3757C60.3361 48.7311 59.18 49.8739 57.9575 50.804C56.7349 51.7342 55.5523 52.1993 54.4095 52.1993C53.5325 52.1993 52.7219 51.907 51.9777 51.3223C51.2602 50.711 50.7153 49.8872 50.3433 48.8507C48.9613 51.0831 47.2205 52.1993 45.1209 52.1993ZM46.5561 48.173C47.1408 48.173 47.6989 47.8275 48.2304 47.1365C48.7619 46.4455 49.1473 45.5286 49.3865 44.3858L50.8615 37.0506C49.7453 37.0772 48.7088 37.5024 47.752 38.3263C46.8218 39.1236 46.0777 40.1867 45.5196 41.5155C44.9615 42.8443 44.6824 44.2529 44.6824 45.7412C44.6824 46.5651 44.8419 47.1763 45.1608 47.575C45.5063 47.9736 45.9714 48.173 46.5561 48.173ZM79.3541 43.1898C79.6996 43.1898 79.9654 43.3626 80.1514 43.7081C80.364 44.027 80.4703 44.4389 80.4703 44.9439C80.4703 45.5552 80.3773 46.0335 80.1913 46.379C80.0052 46.7245 79.7129 47.0302 79.3142 47.2959L71.6601 52.4385C70.6502 57.9399 69.3214 62.2586 67.6736 65.3946C66.0525 68.5573 63.9795 70.1386 61.4547 70.1386C60.0993 70.1386 58.9964 69.7134 58.1459 68.8629C57.2954 68.039 56.8702 66.9494 56.8702 65.594C56.8702 64.3449 57.1493 63.0692 57.7074 61.7669C58.2921 60.4647 59.3551 58.9631 60.8966 57.2622C62.4646 55.5879 64.6705 53.661 67.5142 51.4818L67.6338 50.5649C67.8198 49.5815 68.0324 48.173 68.2716 46.3392C67.7401 48.2527 66.9959 49.7144 66.0392 50.7243C65.0824 51.7077 64.0725 52.1993 63.0094 52.1993C61.8135 52.1993 60.8301 51.6545 60.0594 50.5649C59.3153 49.4486 58.9432 48.0667 58.9432 46.4189C58.9432 44.4256 59.0761 42.6051 59.3418 40.9574C59.6076 39.2831 60.0461 37.5157 60.6574 35.6553C60.9232 34.858 61.2952 34.2866 61.7736 33.9411C62.252 33.5957 63.0094 33.4229 64.0459 33.4229C64.6306 33.4229 65.0293 33.5159 65.2419 33.702C65.4811 33.888 65.6007 34.167 65.6007 34.5391C65.6007 34.7517 65.4545 35.4693 65.1621 36.6918C64.8964 37.6752 64.6838 38.5655 64.5243 39.3628C64.3117 40.4524 64.1257 41.5022 63.9662 42.5121C63.8067 43.4955 63.727 44.3061 63.727 44.9439C63.727 45.9538 64.0061 46.4588 64.5642 46.4588C64.9628 46.4588 65.4545 46.0601 66.0392 45.2628C66.6504 44.4655 67.2883 43.2563 67.9527 41.6351C68.6437 40.0139 69.3081 38.0207 69.9459 35.6553C70.1586 34.858 70.4775 34.2866 70.9027 33.9411C71.3545 33.5957 72.0189 33.4229 72.896 33.4229C73.5072 33.4229 73.9324 33.5026 74.1716 33.6621C74.4108 33.8216 74.5304 34.0873 74.5304 34.4594C74.5304 35.1238 74.1849 37.4094 73.4939 41.3162L72.4574 47.7344C74.5038 46.193 76.4971 44.7844 78.4372 43.5088C78.7827 43.2961 79.0883 43.1898 79.3541 43.1898ZM61.8932 66.2717C62.5576 66.2717 63.3018 65.501 64.1257 63.9595C64.9495 62.4181 65.7734 59.8534 66.5973 56.2656C64.5509 57.993 63.0626 59.5611 62.1324 60.9696C61.2288 62.4048 60.777 63.6539 60.777 64.7169C60.777 65.1687 60.8567 65.5408 61.0162 65.8332C61.2022 66.1255 61.4946 66.2717 61.8932 66.2717ZM95.799 43.1101C96.1445 43.1101 96.4103 43.2696 96.5963 43.5885C96.8089 43.9074 96.9153 44.3459 96.9153 44.904C96.9153 45.9671 96.6628 46.791 96.1578 47.3757C95.1745 48.5716 93.7792 49.6745 91.972 50.6845C90.1914 51.6944 88.2778 52.1993 86.2314 52.1993C83.4409 52.1993 81.2749 51.4419 79.7334 49.927C78.192 48.4121 77.4213 46.3392 77.4213 43.7081C77.4213 41.8743 77.8066 40.1734 78.5773 38.6054C79.3481 37.0108 80.4111 35.7484 81.7665 34.8182C83.1485 33.888 84.7033 33.4229 86.4308 33.4229C87.9722 33.4229 89.208 33.888 90.1382 34.8182C91.0684 35.7218 91.5335 36.9576 91.5335 38.5256C91.5335 40.3594 90.8691 41.9407 89.5402 43.2696C88.238 44.5718 86.0188 45.6083 82.8828 46.379C83.5472 47.6016 84.8096 48.2128 86.6699 48.2128C87.8659 48.2128 89.2213 47.8009 90.7362 46.977C92.2776 46.1266 93.6065 45.0236 94.7227 43.6682C95.0416 43.2961 95.4004 43.1101 95.799 43.1101ZM85.753 37.3297C84.7697 37.3297 83.9325 37.9011 83.2416 39.0439C82.5771 40.1867 82.2449 41.5687 82.2449 43.1898V43.2696C83.8129 42.8975 85.0488 42.3394 85.9524 41.5952C86.856 40.8511 87.3078 39.9873 87.3078 39.004C87.3078 38.499 87.1616 38.1004 86.8693 37.8081C86.6035 37.4891 86.2314 37.3297 85.753 37.3297ZM96.4998 52.1993C95.4899 52.1993 94.7723 51.6678 94.3471 50.6047C93.9484 49.5417 93.7491 47.8408 93.7491 45.502C93.7491 42.047 94.2408 38.7648 95.2241 35.6553C95.4633 34.8846 95.8487 34.3265 96.3802 33.981C96.9383 33.6089 97.709 33.4229 98.6924 33.4229C99.2239 33.4229 99.596 33.4893 99.8086 33.6222C100.021 33.7551 100.127 34.0076 100.127 34.3797C100.127 34.8049 99.9282 35.7617 99.5295 37.2499C99.2638 38.313 99.0511 39.2432 98.8917 40.0405C98.7322 40.8378 98.5993 41.8211 98.493 42.9905C99.3701 40.7049 100.353 38.8445 101.443 37.4094C102.533 35.9743 103.596 34.9511 104.632 34.3398C105.695 33.7285 106.665 33.4229 107.542 33.4229C109.27 33.4229 110.134 34.2866 110.134 36.0141C110.134 36.3596 110.014 37.1968 109.775 38.5256C109.562 39.5887 109.456 40.2531 109.456 40.5189C109.456 41.4491 109.788 41.9142 110.453 41.9142C111.197 41.9142 112.153 41.3295 113.323 40.1601C113.668 39.8146 114.027 39.6418 114.399 39.6418C114.745 39.6418 115.01 39.8013 115.196 40.1202C115.409 40.4126 115.515 40.8112 115.515 41.3162C115.515 42.2995 115.25 43.0702 114.718 43.6283C113.974 44.3991 113.097 45.0635 112.087 45.6216C111.104 46.1531 110.054 46.4189 108.938 46.4189C107.529 46.4189 106.453 46.0601 105.709 45.3425C104.991 44.625 104.632 43.6549 104.632 42.4324C104.632 42.0337 104.672 41.6351 104.752 41.2364C104.805 40.7049 104.832 40.3461 104.832 40.1601C104.832 39.7349 104.685 39.5222 104.393 39.5222C103.994 39.5222 103.463 39.9741 102.798 40.8777C102.161 41.7547 101.523 42.9241 100.885 44.3858C100.247 45.8475 99.7288 47.3889 99.3302 49.0101C99.0379 50.2592 98.6924 51.1097 98.2937 51.5615C97.9216 51.9867 97.3237 52.1993 96.4998 52.1993ZM129.591 43.1101C129.936 43.1101 130.202 43.2696 130.388 43.5885C130.601 43.9074 130.707 44.3459 130.707 44.904C130.707 45.9671 130.455 46.791 129.95 47.3757C128.966 48.5716 127.571 49.6745 125.764 50.6845C123.983 51.6944 122.07 52.1993 120.023 52.1993C117.233 52.1993 115.067 51.4419 113.525 49.927C111.984 48.4121 111.213 46.3392 111.213 43.7081C111.213 41.8743 111.598 40.1734 112.369 38.6054C113.14 37.0108 114.203 35.7484 115.558 34.8182C116.94 33.888 118.495 33.4229 120.223 33.4229C121.764 33.4229 123 33.888 123.93 34.8182C124.86 35.7218 125.325 36.9576 125.325 38.5256C125.325 40.3594 124.661 41.9407 123.332 43.2696C122.03 44.5718 119.811 45.6083 116.675 46.379C117.339 47.6016 118.601 48.2128 120.462 48.2128C121.658 48.2128 123.013 47.8009 124.528 46.977C126.069 46.1266 127.398 45.0236 128.514 43.6682C128.833 43.2961 129.192 43.1101 129.591 43.1101ZM119.545 37.3297C118.562 37.3297 117.724 37.9011 117.033 39.0439C116.369 40.1867 116.037 41.5687 116.037 43.1898V43.2696C117.605 42.8975 118.841 42.3394 119.744 41.5952C120.648 40.8511 121.1 39.9873 121.1 39.004C121.1 38.499 120.953 38.1004 120.661 37.8081C120.395 37.4891 120.023 37.3297 119.545 37.3297ZM130.292 52.1993C129.282 52.1993 128.564 51.6678 128.139 50.6047C127.74 49.5417 127.541 47.8408 127.541 45.502C127.541 42.047 128.033 38.7648 129.016 35.6553C129.255 34.8846 129.64 34.3265 130.172 33.981C130.73 33.6089 131.501 33.4229 132.484 33.4229C133.016 33.4229 133.388 33.4893 133.6 33.6222C133.813 33.7551 133.919 34.0076 133.919 34.3797C133.919 34.8049 133.72 35.7617 133.321 37.2499C133.056 38.313 132.843 39.2432 132.684 40.0405C132.524 40.8378 132.391 41.8211 132.285 42.9905C133.162 40.7049 134.145 38.8445 135.235 37.4094C136.325 35.9743 137.388 34.9511 138.424 34.3398C139.487 33.7285 140.457 33.4229 141.334 33.4229C143.062 33.4229 143.925 34.2866 143.925 36.0141C143.925 37.0506 143.633 38.9243 143.048 41.6351C142.543 43.9473 142.291 45.4754 142.291 46.2196C142.291 47.2826 142.676 47.8142 143.447 47.8142C143.979 47.8142 144.603 47.4953 145.321 46.8574C146.065 46.193 147.048 45.1299 148.271 43.6682C148.59 43.2961 148.948 43.1101 149.347 43.1101C149.693 43.1101 149.958 43.2696 150.144 43.5885C150.357 43.9074 150.463 44.3459 150.463 44.904C150.463 45.9671 150.211 46.791 149.706 47.3757C148.563 48.7842 147.327 49.9403 145.998 50.8439C144.696 51.7475 143.208 52.1993 141.534 52.1993C140.178 52.1993 139.155 51.814 138.464 51.0432C137.773 50.2459 137.427 49.1031 137.427 47.6148C137.427 46.8707 137.613 45.5419 137.986 43.6283C138.331 41.954 138.504 40.7979 138.504 40.1601C138.504 39.7349 138.358 39.5222 138.065 39.5222C137.72 39.5222 137.228 39.9741 136.59 40.8777C135.979 41.7547 135.341 42.9241 134.677 44.3858C134.039 45.8475 133.521 47.3889 133.122 49.0101C132.83 50.2592 132.484 51.1097 132.086 51.5615C131.713 51.9867 131.115 52.1993 130.292 52.1993ZM152.46 30.7918C151.344 30.7918 150.507 30.5393 149.949 30.0344C149.391 29.5028 149.112 28.772 149.112 27.8418C149.112 26.9116 149.47 26.1409 150.188 25.5296C150.932 24.8918 151.849 24.5729 152.939 24.5729C153.922 24.5729 154.719 24.8121 155.331 25.2904C155.942 25.7688 156.247 26.4465 156.247 27.3236C156.247 28.3866 155.902 29.2371 155.211 29.8749C154.52 30.4862 153.603 30.7918 152.46 30.7918ZM152.141 52.1993C150.414 52.1993 149.151 51.5881 148.354 50.3655C147.583 49.143 147.198 47.5218 147.198 45.502C147.198 44.3061 147.344 42.7779 147.637 40.9175C147.956 39.0306 148.354 37.2765 148.833 35.6553C149.072 34.8049 149.391 34.2202 149.789 33.9013C150.188 33.5824 150.826 33.4229 151.703 33.4229C153.058 33.4229 153.736 33.8747 153.736 34.7783C153.736 35.4427 153.483 36.9842 152.979 39.4027C152.341 42.3261 152.022 44.3061 152.022 45.3425C152.022 46.1398 152.128 46.7511 152.341 47.1763C152.553 47.6016 152.912 47.8142 153.417 47.8142C153.895 47.8142 154.493 47.482 155.211 46.8175C155.929 46.1531 156.885 45.1034 158.081 43.6682C158.4 43.2961 158.759 43.1101 159.158 43.1101C159.503 43.1101 159.769 43.2696 159.955 43.5885C160.168 43.9074 160.274 44.3459 160.274 44.904C160.274 45.9671 160.021 46.791 159.516 47.3757C156.885 50.5914 154.427 52.1993 152.141 52.1993ZM173.991 47.854C175.081 48.0667 175.626 48.6646 175.626 49.648C175.626 50.3124 175.32 50.9104 174.709 51.4419C174.124 51.9468 173.274 52.1993 172.157 52.1993C170.244 52.1993 168.676 51.6146 167.453 50.4453C166.257 49.2493 165.659 47.6946 165.659 45.7811C165.659 44.7446 166.191 44.0004 167.254 43.5486C168.423 43.0437 169.26 42.5121 169.765 41.954C170.27 41.3693 170.523 40.665 170.523 39.8412C170.523 39.3628 170.417 39.004 170.204 38.7648C170.018 38.5256 169.779 38.406 169.486 38.406C168.769 38.406 167.972 38.9243 167.094 39.9608C166.244 40.9973 165.447 42.3394 164.703 43.9871C163.958 45.6083 163.374 47.2826 162.949 49.0101C162.656 50.2592 162.311 51.1097 161.912 51.5615C161.54 51.9867 160.942 52.1993 160.118 52.1993C159.294 52.1993 158.683 51.907 158.284 51.3223C157.912 50.711 157.66 49.7808 157.527 48.5317C157.394 47.2826 157.328 45.4488 157.328 43.0304C157.328 38.9376 157.739 34.672 158.563 30.2337C159.414 25.7954 160.65 22.0747 162.271 19.0715C163.919 16.0418 165.885 14.5269 168.171 14.5269C169.393 14.5269 170.377 15.0584 171.121 16.1215C171.892 17.158 172.277 18.5134 172.277 20.1877C172.277 22.872 171.493 25.6625 169.925 28.5594C168.357 31.4297 165.806 34.7916 162.271 38.6452C162.191 40.0272 162.151 41.4491 162.151 42.9108C163.427 39.5887 164.889 37.1835 166.536 35.6952C168.184 34.1803 169.726 33.4229 171.161 33.4229C172.49 33.4229 173.553 33.8747 174.35 34.7783C175.174 35.6819 175.586 36.7981 175.586 38.127C175.586 39.5887 175.214 40.9308 174.47 42.1533C173.725 43.3759 172.45 44.4655 170.642 45.4223C170.802 46.2196 171.121 46.7777 171.599 47.0966C172.104 47.3889 172.901 47.6414 173.991 47.854ZM167.334 18.4735C166.855 18.4735 166.324 19.1645 165.739 20.5465C165.154 21.9019 164.583 23.749 164.025 26.0877C163.493 28.3999 163.055 30.9247 162.709 33.6621C164.357 31.722 165.712 29.6091 166.776 27.3236C167.865 25.038 168.41 22.965 168.41 21.1046C168.41 20.2542 168.317 19.603 168.131 19.1512C167.945 18.6994 167.679 18.4735 167.334 18.4735Z" fill="#21449E"/>
</svg>
