<svg width="217" height="143" viewBox="0 0 217 143" fill="none" xmlns="http://www.w3.org/2000/svg">
<g filter="url(#filter0_d_1527_852)">
<path d="M150.558 46.3349C142.814 38.3031 130.013 38.0816 121.967 45.84C119.863 47.868 118.293 50.2405 117.259 52.7823C116.27 51.8284 114.991 51.2396 113.582 51.2058C111.761 51.1621 110.111 52.0554 108.999 53.4929C106.934 48.3752 102.398 44.7721 97.0526 44.6438C91.9407 44.521 87.4158 47.6076 85.0112 52.2614C83.0672 49.6543 79.9651 48.2472 76.8688 48.8996C73.4844 49.6127 71.0865 52.5796 70.6126 56.1607C64.7803 50.9615 56.2124 50.717 50.9483 55.7926C47.6546 58.9682 46.395 63.5123 47.134 67.9433C36.8019 67.5527 32.4455 79.9924 36.5068 86.8867C39.271 91.5794 43.6848 94.668 49.1193 94.7381C52.4105 94.7806 55.41 94.0763 57.6363 92.8945C58.8395 98.8005 65.6508 103.387 73.933 103.494C80.3128 103.576 85.8887 100.979 88.733 97.0968C90.7862 98.6275 93.6081 99.5908 96.733 99.6311C99.4775 99.6665 102.007 98.9842 103.999 97.8168C104.77 105.869 113.742 112.308 124.782 112.451C135.758 112.592 144.852 106.459 145.918 98.4965C150.756 101.334 156.213 101.408 159.485 98.2541C161.622 96.1931 162.416 93.149 161.968 89.9091C166.985 91.8286 172.885 90.8211 177.013 86.8405C182.698 81.3588 182.872 72.3147 177.4 66.6399C174.767 63.9089 171.307 62.4559 167.791 62.2944C167.952 59.5387 167.008 56.7286 164.943 54.587C162.132 51.6715 158.007 50.785 154.393 51.9589C153.468 49.9335 152.191 48.0282 150.558 46.3349Z" fill="url(#paint0_linear_1527_852)"/>
<mask id="mask0_1527_852" style="mask-type:alpha" maskUnits="userSpaceOnUse" x="35" y="40" width="147" height="73">
<path d="M150.557 46.3353C142.813 38.3036 130.012 38.0821 121.966 45.8405C119.862 47.8685 118.292 50.241 117.258 52.7828C116.269 51.8289 114.99 51.2401 113.581 51.2063C111.76 51.1626 110.11 52.0559 108.998 53.4934C106.933 48.3757 102.397 44.7726 97.0516 44.6442C91.9397 44.5215 87.4148 47.6081 85.0102 52.2618C83.0662 49.6547 79.9642 48.2477 76.8678 48.9001C73.4834 49.6132 71.0855 52.5801 70.6117 56.1611C64.7793 50.962 56.2115 50.7175 50.9473 55.7931C47.6536 58.9687 46.394 63.5128 47.133 67.9437C36.8009 67.5532 32.4446 79.9929 36.5058 86.8872C39.2701 91.5799 43.6838 94.6685 49.1183 94.7386C52.4095 94.781 55.409 94.0768 57.6353 92.895C58.8385 98.801 65.6498 103.387 73.932 103.494C80.3118 103.576 85.8877 100.979 88.7321 97.0973C90.7853 98.628 93.6071 99.5913 96.732 99.6316C99.4765 99.667 102.006 98.9847 103.998 97.8173C104.769 105.869 113.741 112.309 124.781 112.451C135.758 112.593 144.851 106.459 145.917 98.497C150.755 101.335 156.212 101.409 159.484 98.2546C161.621 96.1935 162.415 93.1495 161.967 89.9096C166.984 91.8291 172.884 90.8216 177.012 86.841C182.697 81.3593 182.871 72.3151 177.4 66.6403C174.766 63.9094 171.306 62.4564 167.79 62.2948C167.951 59.5392 167.007 56.7291 164.942 54.5875C162.131 51.672 158.006 50.7855 154.392 51.9594C153.467 49.934 152.19 48.0287 150.557 46.3353Z" fill="url(#paint1_linear_1527_852)"/>
</mask>
<g mask="url(#mask0_1527_852)">
<ellipse cx="41.6133" cy="40.8832" rx="41.6133" ry="40.8832" transform="matrix(-1 0 0 1 167.138 61.7002)" fill="url(#paint2_radial_1527_852)"/>
<ellipse cx="27.5597" cy="27.0121" rx="27.5597" ry="27.0121" transform="matrix(-1 0 0 1 99.6113 70.4609)" fill="url(#paint3_radial_1527_852)"/>
<ellipse cx="7.6656" cy="7.48309" rx="7.6656" ry="7.48309" transform="matrix(-1 0 0 1 86.1045 48.5586)" fill="url(#paint4_radial_1527_852)"/>
<ellipse cx="5.29291" cy="5.1104" rx="5.29291" ry="5.1104" transform="matrix(-1 0 0 1 118.593 50.749)" fill="url(#paint5_radial_1527_852)"/>
<ellipse cx="10.7683" cy="10.4033" rx="10.7683" ry="10.4033" transform="matrix(-1 0 0 1 169.697 49.2891)" fill="url(#paint6_radial_1527_852)"/>
<ellipse cx="23.5443" cy="22.8143" rx="23.5443" ry="22.8143" transform="matrix(-1 0 0 1 162.027 32.498)" fill="url(#paint7_radial_1527_852)"/>
<ellipse cx="18.2514" cy="17.7039" rx="18.2514" ry="17.7039" transform="matrix(-1 0 0 1 76.9775 45.2734)" fill="url(#paint8_radial_1527_852)"/>
<ellipse cx="18.2514" cy="17.7039" rx="18.2514" ry="17.7039" transform="matrix(-1 0 0 1 66.0264 64.6196)" fill="url(#paint9_radial_1527_852)"/>
<ellipse cx="18.2514" cy="17.7039" rx="18.2514" ry="17.7039" transform="matrix(-1 0 0 1 91.2109 72.6509)" fill="url(#paint10_radial_1527_852)"/>
<ellipse cx="22.8143" cy="13.8711" rx="22.8143" ry="13.8711" transform="matrix(-1 0 0 1 146.336 84.6968)" fill="url(#paint11_radial_1527_852)"/>
<ellipse cx="22.8143" cy="11.6809" rx="22.8143" ry="11.6809" transform="matrix(-1 0 0 1 91.9453 64.6196)" fill="url(#paint12_radial_1527_852)"/>
<ellipse cx="12.5935" cy="22.0842" rx="12.5935" ry="22.0842" transform="matrix(-0.851187 0.524863 0.524863 0.851187 85.2783 46.7339)" fill="url(#paint13_radial_1527_852)"/>
<ellipse cx="31.0274" cy="30.1149" rx="31.0274" ry="30.1149" transform="matrix(-1 0 0 1 138.303 43.8145)" fill="url(#paint14_radial_1527_852)"/>
<ellipse cx="12.9585" cy="12.5935" rx="12.9585" ry="12.5935" transform="matrix(-1 0 0 1 161.305 63.5249)" fill="url(#paint15_radial_1527_852)"/>
<ellipse cx="21.3542" cy="27.1946" rx="21.3542" ry="27.1946" transform="matrix(-0.835112 0.55008 0.55008 0.835112 129.435 41.9888)" fill="url(#paint16_radial_1527_852)"/>
<ellipse cx="12.5935" cy="12.2285" rx="12.5935" ry="12.2285" transform="matrix(-1 0 0 1 109.828 42.7192)" fill="url(#paint17_radial_1527_852)"/>
<ellipse cx="18.799" cy="18.4339" rx="18.799" ry="18.4339" transform="matrix(-1 0 0 1 62.0088 75.5713)" fill="url(#paint18_radial_1527_852)"/>
<ellipse cx="17.3389" cy="16.9738" rx="17.3389" ry="16.9738" transform="matrix(-1 0 0 1 173.345 82.5063)" fill="url(#paint19_radial_1527_852)"/>
<ellipse cx="31.0274" cy="30.2974" rx="31.0274" ry="30.2974" transform="matrix(-1 0 0 1 202.547 57.3198)" fill="url(#paint20_radial_1527_852)"/>
<ellipse cx="21.3542" cy="20.9891" rx="21.3542" ry="20.9891" transform="matrix(-1 0 0 1 116.767 76.3018)" fill="url(#paint21_radial_1527_852)"/>
<ellipse cx="12.5935" cy="12.2285" rx="12.5935" ry="12.2285" transform="matrix(-1 0 0 1 180.648 63.8906)" fill="url(#paint22_radial_1527_852)"/>
<ellipse cx="9.67326" cy="9.30823" rx="9.67326" ry="9.30823" transform="matrix(-1 0 0 1 162.027 82.1416)" fill="url(#paint23_radial_1527_852)"/>
<ellipse cx="8.76069" cy="8.39566" rx="8.76069" ry="8.39566" transform="matrix(-1 0 0 1 105.084 83.6021)" fill="url(#paint24_radial_1527_852)"/>
</g>
</g>
<defs>
<filter id="filter0_d_1527_852" x="0.298634" y="0.444654" width="215.796" height="141.693" filterUnits="userSpaceOnUse" color-interpolation-filters="sRGB">
<feFlood flood-opacity="0" result="BackgroundImageFix"/>
<feColorMatrix in="SourceAlpha" type="matrix" values="0 0 0 0 0 0 0 0 0 0 0 0 0 0 0 0 0 0 127 0" result="hardAlpha"/>
<feOffset dy="-5.01707"/>
<feGaussianBlur stdDeviation="17.3507"/>
<feComposite in2="hardAlpha" operator="out"/>
<feColorMatrix type="matrix" values="0 0 0 0 0 0 0 0 0 0 0 0 0 0 0 0 0 0 0.12 0"/>
<feBlend mode="normal" in2="BackgroundImageFix" result="effect1_dropShadow_1527_852"/>
<feBlend mode="normal" in="SourceGraphic" in2="effect1_dropShadow_1527_852" result="shape"/>
</filter>
<linearGradient id="paint0_linear_1527_852" x1="89.0552" y1="40.1631" x2="89.0552" y2="112.453" gradientUnits="userSpaceOnUse">
<stop offset="0.450696" stop-color="#FEFDE9"/>
<stop offset="1" stop-color="#DCDCDC"/>
</linearGradient>
<linearGradient id="paint1_linear_1527_852" x1="89.0542" y1="40.1636" x2="89.0542" y2="112.453" gradientUnits="userSpaceOnUse">
<stop offset="0.450696" stop-color="white"/>
<stop offset="1" stop-color="#DCDCDC"/>
</linearGradient>
<radialGradient id="paint2_radial_1527_852" cx="0" cy="0" r="1" gradientUnits="userSpaceOnUse" gradientTransform="translate(41.6133 40.8832) rotate(90) scale(40.8832 41.6133)">
<stop stop-color="#BCBCBC"/>
<stop offset="1" stop-color="#D9D9D9" stop-opacity="0"/>
</radialGradient>
<radialGradient id="paint3_radial_1527_852" cx="0" cy="0" r="1" gradientUnits="userSpaceOnUse" gradientTransform="translate(27.5597 27.0121) rotate(90) scale(27.0121 27.5597)">
<stop stop-color="#BCBCBC"/>
<stop offset="1" stop-color="#D9D9D9" stop-opacity="0"/>
</radialGradient>
<radialGradient id="paint4_radial_1527_852" cx="0" cy="0" r="1" gradientUnits="userSpaceOnUse" gradientTransform="translate(7.6656 7.48309) rotate(90.3887) scale(7.48326 7.66577)">
<stop stop-color="white"/>
<stop offset="1" stop-color="#D9D9D9" stop-opacity="0"/>
</radialGradient>
<radialGradient id="paint5_radial_1527_852" cx="0" cy="0" r="1" gradientUnits="userSpaceOnUse" gradientTransform="translate(5.29291 5.1104) rotate(90.393) scale(5.11052 5.29303)">
<stop stop-color="white"/>
<stop offset="1" stop-color="#D9D9D9" stop-opacity="0"/>
</radialGradient>
<radialGradient id="paint6_radial_1527_852" cx="0" cy="0" r="1" gradientUnits="userSpaceOnUse" gradientTransform="translate(10.7683 10.4033) rotate(90.3927) scale(10.4036 10.7686)">
<stop stop-color="white"/>
<stop offset="1" stop-color="#D9D9D9" stop-opacity="0"/>
</radialGradient>
<radialGradient id="paint7_radial_1527_852" cx="0" cy="0" r="1" gradientUnits="userSpaceOnUse" gradientTransform="translate(23.5443 22.8143) rotate(90.3916) scale(22.8148 23.5449)">
<stop stop-color="white"/>
<stop offset="1" stop-color="#D9D9D9" stop-opacity="0"/>
</radialGradient>
<radialGradient id="paint8_radial_1527_852" cx="0" cy="0" r="1" gradientUnits="userSpaceOnUse" gradientTransform="translate(18.2514 17.7039) rotate(90.3912) scale(17.7043 18.2518)">
<stop stop-color="white"/>
<stop offset="1" stop-color="#D9D9D9" stop-opacity="0"/>
</radialGradient>
<radialGradient id="paint9_radial_1527_852" cx="0" cy="0" r="1" gradientUnits="userSpaceOnUse" gradientTransform="translate(18.2514 17.7039) rotate(90.3912) scale(17.7043 18.2518)">
<stop offset="0.309477" stop-color="white"/>
<stop offset="1" stop-color="#D9D9D9" stop-opacity="0"/>
</radialGradient>
<radialGradient id="paint10_radial_1527_852" cx="0" cy="0" r="1" gradientUnits="userSpaceOnUse" gradientTransform="translate(18.2514 17.7039) rotate(90.3912) scale(17.7043 18.2518)">
<stop offset="0.278871" stop-color="white" stop-opacity="0.85"/>
<stop offset="1" stop-color="#D9D9D9" stop-opacity="0"/>
</radialGradient>
<radialGradient id="paint11_radial_1527_852" cx="0" cy="0" r="1" gradientUnits="userSpaceOnUse" gradientTransform="translate(22.8143 13.8711) rotate(90.6241) scale(13.8719 22.814)">
<stop offset="0.278871" stop-color="white" stop-opacity="0.85"/>
<stop offset="1" stop-color="#D9D9D9" stop-opacity="0"/>
</radialGradient>
<radialGradient id="paint12_radial_1527_852" cx="0" cy="0" r="1" gradientUnits="userSpaceOnUse" gradientTransform="translate(22.8143 11.6809) rotate(91.2169) scale(8.59369 16.7791)">
<stop offset="0.22453" stop-color="white" stop-opacity="0.85"/>
<stop offset="1" stop-color="#D9D9D9" stop-opacity="0"/>
</radialGradient>
<radialGradient id="paint13_radial_1527_852" cx="0" cy="0" r="1" gradientUnits="userSpaceOnUse" gradientTransform="translate(12.5935 22.0842) rotate(90.3554) scale(16.2441 9.26396)">
<stop offset="0.22453" stop-color="white" stop-opacity="0.85"/>
<stop offset="1" stop-color="#D9D9D9" stop-opacity="0"/>
</radialGradient>
<radialGradient id="paint14_radial_1527_852" cx="0" cy="0" r="1" gradientUnits="userSpaceOnUse" gradientTransform="translate(31.0274 30.1149) rotate(90.642) scale(22.152 22.8233)">
<stop offset="0.22453" stop-color="white" stop-opacity="0.85"/>
<stop offset="1" stop-color="#D9D9D9" stop-opacity="0"/>
</radialGradient>
<radialGradient id="paint15_radial_1527_852" cx="0" cy="0" r="1" gradientUnits="userSpaceOnUse" gradientTransform="translate(12.9585 12.5935) rotate(90.6412) scale(9.26356 9.53207)">
<stop offset="0.22453" stop-color="white" stop-opacity="0.85"/>
<stop offset="1" stop-color="#D9D9D9" stop-opacity="0"/>
</radialGradient>
<radialGradient id="paint16_radial_1527_852" cx="0" cy="0" r="1" gradientUnits="userSpaceOnUse" gradientTransform="translate(21.3542 27.1946) rotate(90.4893) scale(20.0034 15.7082)">
<stop offset="0.22453" stop-color="white" stop-opacity="0.85"/>
<stop offset="1" stop-color="#D9D9D9" stop-opacity="0"/>
</radialGradient>
<radialGradient id="paint17_radial_1527_852" cx="0" cy="0" r="1" gradientUnits="userSpaceOnUse" gradientTransform="translate(12.5935 12.2285) rotate(90.3908) scale(12.2287 12.5938)">
<stop offset="0.278871" stop-color="white" stop-opacity="0.85"/>
<stop offset="1" stop-color="#D9D9D9" stop-opacity="0"/>
</radialGradient>
<radialGradient id="paint18_radial_1527_852" cx="0" cy="0" r="1" gradientUnits="userSpaceOnUse" gradientTransform="translate(18.799 18.4339) rotate(90) scale(18.4339 18.799)">
<stop stop-color="#BCBCBC"/>
<stop offset="1" stop-color="#D9D9D9" stop-opacity="0"/>
</radialGradient>
<radialGradient id="paint19_radial_1527_852" cx="0" cy="0" r="1" gradientUnits="userSpaceOnUse" gradientTransform="translate(17.3389 16.9738) rotate(90) scale(16.9738 17.3389)">
<stop stop-color="#BCBCBC"/>
<stop offset="1" stop-color="#D9D9D9" stop-opacity="0"/>
</radialGradient>
<radialGradient id="paint20_radial_1527_852" cx="0" cy="0" r="1" gradientUnits="userSpaceOnUse" gradientTransform="translate(31.0274 30.2974) rotate(90) scale(30.2974 31.0274)">
<stop stop-color="#BCBCBC"/>
<stop offset="1" stop-color="#D9D9D9" stop-opacity="0"/>
</radialGradient>
<radialGradient id="paint21_radial_1527_852" cx="0" cy="0" r="1" gradientUnits="userSpaceOnUse" gradientTransform="translate(21.3542 20.9891) rotate(90) scale(20.9891 21.3542)">
<stop stop-color="#BCBCBC"/>
<stop offset="1" stop-color="#D9D9D9" stop-opacity="0"/>
</radialGradient>
<radialGradient id="paint22_radial_1527_852" cx="0" cy="0" r="1" gradientUnits="userSpaceOnUse" gradientTransform="translate(12.5935 12.2285) rotate(90.3908) scale(12.2287 12.5938)">
<stop offset="0.278871" stop-color="white" stop-opacity="0.85"/>
<stop offset="1" stop-color="#D9D9D9" stop-opacity="0"/>
</radialGradient>
<radialGradient id="paint23_radial_1527_852" cx="0" cy="0" r="1" gradientUnits="userSpaceOnUse" gradientTransform="translate(9.67326 9.30823) rotate(90.3943) scale(9.30845 9.67347)">
<stop offset="0.278871" stop-color="white" stop-opacity="0.85"/>
<stop offset="1" stop-color="#D9D9D9" stop-opacity="0"/>
</radialGradient>
<radialGradient id="paint24_radial_1527_852" cx="0" cy="0" r="1" gradientUnits="userSpaceOnUse" gradientTransform="translate(8.76069 8.39566) rotate(90.3959) scale(8.39586 8.76088)">
<stop offset="0.278871" stop-color="white" stop-opacity="0.85"/>
<stop offset="1" stop-color="#D9D9D9" stop-opacity="0"/>
</radialGradient>
</defs>
</svg>
