<svg width="175" height="71" viewBox="0 0 175 71" fill="none" xmlns="http://www.w3.org/2000/svg">
<path fill-rule="evenodd" clip-rule="evenodd" d="M106.396 17.7173L92.7303 31.3056H91.1166C91.1166 27.7207 88.1637 24.8187 84.5585 24.8187C83.9062 24.8187 83.2538 24.887 82.6701 25.0918L106.396 1.5L136.371 31.3056H120.027L106.396 17.7173ZM78.0348 31.3056C78.0348 30.6569 78.1035 30.0082 78.3095 29.4278L76.3867 31.3056H78.0348Z" fill="white" fill-opacity="0.7"/>
<path fill-rule="evenodd" clip-rule="evenodd" d="M69.1221 23.8387L61.7139 31.3052H45.4639L69.1221 7.46069L86.5329 25.043C85.9525 24.8365 85.3039 24.7677 84.6552 24.7677C81.0707 24.7677 78.1689 27.6924 78.1689 31.3052H76.5302L69.1221 23.8387ZM92.7803 31.3052L90.8685 29.4128C91.0733 29.9977 91.1758 30.6514 91.1758 31.3052H92.7803Z" fill="white" fill-opacity="0.7"/>
<path fill-rule="evenodd" clip-rule="evenodd" d="M91.1566 31.3055C91.1566 27.692 88.197 24.7668 84.5835 24.7668C80.9701 24.7668 78.0449 27.692 78.0449 31.3055H67.4453C67.4453 21.8416 75.1197 14.1672 84.5835 14.1672C94.0474 14.1672 101.722 21.8416 101.722 31.3055H91.1566Z" fill="white" fill-opacity="0.7"/>
<path d="M40.3285 43.8601C40.674 43.8601 40.9398 44.0196 41.1258 44.3385C41.3384 44.6574 41.4447 45.0959 41.4447 45.654C41.4447 46.6905 41.1923 47.5144 40.6873 48.1257C38.0562 51.3414 35.2524 52.9493 32.2758 52.9493C29.6979 52.9493 27.6382 51.9527 26.0967 49.9594C24.5553 47.9662 23.7845 45.1092 23.7845 41.3885C23.7845 40.4849 23.8244 39.5813 23.9041 38.6776C22.1501 38.9966 20.2366 39.2358 18.1636 39.3952C16.7816 39.5015 15.8381 39.568 15.3332 39.5945C14.8016 42.3054 14.0575 45.6275 13.1007 49.5608C12.5426 51.873 11.4795 53.0291 9.91152 53.0291C8.21061 53.0291 7.36016 52.2583 7.36016 50.7169C7.36016 50.3714 7.4266 49.893 7.55948 49.2817C8.46309 45.6407 9.18066 42.5578 9.71219 40.0331L7.79867 40.1128C6.92164 40.1128 6.2838 39.9666 5.88515 39.6743C5.4865 39.3554 5.28718 38.8504 5.28718 38.1594C5.28718 37.2824 5.53965 36.6445 6.04461 36.2459C6.54957 35.8207 7.38673 35.5815 8.55611 35.5283L10.669 35.4486C11.3599 31.7013 11.7054 28.8443 11.7054 26.8776C11.7054 25.6285 11.5194 24.778 11.1473 24.3262C10.7753 23.8744 10.2836 23.6485 9.67233 23.6485C7.81196 23.6485 5.7124 25.2033 3.37366 28.3127C3.02816 28.7645 2.6428 28.9905 2.21757 28.9905C1.8455 28.9905 1.52658 28.8177 1.26081 28.4722C0.995043 28.1267 0.86216 27.6882 0.86216 27.1567C0.86216 26.3328 1.19437 25.4558 1.85879 24.5256C3.02816 22.9044 4.50316 21.5756 6.2838 20.5391C8.06444 19.476 9.87165 18.9445 11.7054 18.9445C13.4329 18.9445 14.7618 19.5424 15.6919 20.7384C16.6487 21.9078 17.1271 23.7416 17.1271 26.2398C17.1271 28.4456 16.8082 31.4355 16.1703 35.2094L20.0771 35.0101C21.7514 34.9303 23.1866 34.7975 24.3825 34.6114C24.8609 31.688 25.5918 28.9506 26.5751 26.3992C27.5584 23.8479 28.781 21.7749 30.2427 20.1803C31.7044 18.5857 33.3389 17.7884 35.1461 17.7884C36.4749 17.7884 37.5247 18.3199 38.2954 19.383C39.0661 20.4195 39.4515 21.7882 39.4515 23.4891C39.4515 30.0801 36.0895 34.6513 29.3656 37.2026C29.2859 38.2657 29.2461 39.3686 29.2461 40.5114C29.2461 43.302 29.5915 45.282 30.2825 46.4513C30.9735 47.6207 31.9436 48.2054 33.1927 48.2054C34.2823 48.2054 35.279 47.9263 36.1826 47.3682C37.0862 46.7835 38.1094 45.8002 39.2522 44.4182C39.5711 44.0461 39.9299 43.8601 40.3285 43.8601ZM34.9467 21.2566C34.3621 21.2566 33.7375 21.7882 33.0731 22.8512C32.4353 23.9143 31.824 25.3627 31.2393 27.1965C30.6546 29.0303 30.1895 31.0369 29.844 33.2161C31.9702 32.3391 33.5382 31.09 34.5481 29.4688C35.558 27.8477 36.063 25.7614 36.063 23.21C36.063 22.5988 35.9567 22.1204 35.744 21.7749C35.5314 21.4294 35.2657 21.2566 34.9467 21.2566ZM43.1209 52.9493C41.4732 52.9493 40.1576 52.3513 39.1743 51.1554C38.191 49.9594 37.6993 48.3914 37.6993 46.4513C37.6993 44.3252 38.191 42.3187 39.1743 40.4317C40.1576 38.5182 41.4599 36.99 43.0811 35.8472C44.7288 34.6779 46.4696 34.0932 48.3034 34.0932C48.8881 34.0932 49.2734 34.2128 49.4595 34.452C49.6721 34.6646 49.8448 35.0632 49.9777 35.6479C50.5358 35.5416 51.1205 35.4884 51.7318 35.4884C53.034 35.4884 53.6852 35.9535 53.6852 36.8837C53.6852 37.4418 53.4858 38.7707 53.0872 40.8702C52.4759 43.9265 52.1703 46.0527 52.1703 47.2486C52.1703 47.6473 52.2633 47.9662 52.4494 48.2054C52.662 48.4446 52.9277 48.5642 53.2467 48.5642C53.7516 48.5642 54.3629 48.2453 55.0804 47.6074C55.798 46.943 56.7681 45.8799 57.9906 44.4182C58.3095 44.0461 58.6683 43.8601 59.0669 43.8601C59.4124 43.8601 59.6782 44.0196 59.8642 44.3385C60.0769 44.6574 60.1832 45.0959 60.1832 45.654C60.1832 46.7171 59.9307 47.541 59.4257 48.1257C58.3361 49.4811 57.18 50.6239 55.9575 51.554C54.7349 52.4842 53.5523 52.9493 52.4095 52.9493C51.5325 52.9493 50.7219 52.657 49.9777 52.0723C49.2602 51.461 48.7153 50.6372 48.3433 49.6007C46.9613 51.8331 45.2205 52.9493 43.1209 52.9493ZM44.5561 48.923C45.1408 48.923 45.6989 48.5775 46.2304 47.8865C46.7619 47.1955 47.1473 46.2786 47.3865 45.1358L48.8615 37.8006C47.7453 37.8272 46.7088 38.2524 45.752 39.0763C44.8218 39.8736 44.0777 40.9367 43.5196 42.2655C42.9615 43.5943 42.6824 45.0029 42.6824 46.4912C42.6824 47.3151 42.8419 47.9263 43.1608 48.325C43.5063 48.7236 43.9714 48.923 44.5561 48.923ZM77.3541 43.9398C77.6996 43.9398 77.9654 44.1126 78.1514 44.4581C78.364 44.777 78.4703 45.1889 78.4703 45.6939C78.4703 46.3052 78.3773 46.7835 78.1913 47.129C78.0052 47.4745 77.7129 47.7802 77.3142 48.0459L69.6601 53.1885C68.6502 58.6899 67.3214 63.0086 65.6736 66.1446C64.0525 69.3073 61.9795 70.8886 59.4547 70.8886C58.0993 70.8886 56.9964 70.4634 56.1459 69.6129C55.2954 68.789 54.8702 67.6994 54.8702 66.344C54.8702 65.0949 55.1493 63.8192 55.7074 62.5169C56.2921 61.2147 57.3551 59.7131 58.8966 58.0122C60.4646 56.3379 62.6705 54.411 65.5142 52.2318L65.6338 51.3149C65.8198 50.3315 66.0324 48.923 66.2716 47.0892C65.7401 49.0027 64.9959 50.4644 64.0392 51.4743C63.0824 52.4577 62.0725 52.9493 61.0094 52.9493C59.8135 52.9493 58.8301 52.4045 58.0594 51.3149C57.3153 50.1986 56.9432 48.8167 56.9432 47.1689C56.9432 45.1756 57.0761 43.3551 57.3418 41.7074C57.6076 40.0331 58.0461 38.2657 58.6574 36.4053C58.9232 35.608 59.2952 35.0366 59.7736 34.6911C60.252 34.3457 61.0094 34.1729 62.0459 34.1729C62.6306 34.1729 63.0293 34.2659 63.2419 34.452C63.4811 34.638 63.6007 34.917 63.6007 35.2891C63.6007 35.5017 63.4545 36.2193 63.1621 37.4418C62.8964 38.4252 62.6838 39.3155 62.5243 40.1128C62.3117 41.2024 62.1257 42.2522 61.9662 43.2621C61.8067 44.2455 61.727 45.0561 61.727 45.6939C61.727 46.7038 62.0061 47.2088 62.5642 47.2088C62.9628 47.2088 63.4545 46.8101 64.0392 46.0128C64.6504 45.2155 65.2883 44.0063 65.9527 42.3851C66.6437 40.7639 67.3081 38.7707 67.9459 36.4053C68.1586 35.608 68.4775 35.0366 68.9027 34.6911C69.3545 34.3457 70.0189 34.1729 70.896 34.1729C71.5072 34.1729 71.9324 34.2526 72.1716 34.4121C72.4108 34.5716 72.5304 34.8373 72.5304 35.2094C72.5304 35.8738 72.1849 38.1594 71.4939 42.0662L70.4574 48.4844C72.5038 46.943 74.4971 45.5344 76.4372 44.2588C76.7827 44.0461 77.0883 43.9398 77.3541 43.9398ZM59.8932 67.0217C60.5576 67.0217 61.3018 66.251 62.1257 64.7095C62.9495 63.1681 63.7734 60.6034 64.5973 57.0156C62.5509 58.743 61.0626 60.3111 60.1324 61.7196C59.2288 63.1548 58.777 64.4039 58.777 65.4669C58.777 65.9187 58.8567 66.2908 59.0162 66.5832C59.2022 66.8755 59.4946 67.0217 59.8932 67.0217ZM93.799 43.8601C94.1445 43.8601 94.4103 44.0196 94.5963 44.3385C94.8089 44.6574 94.9153 45.0959 94.9153 45.654C94.9153 46.7171 94.6628 47.541 94.1578 48.1257C93.1745 49.3216 91.7792 50.4245 89.972 51.4345C88.1914 52.4444 86.2778 52.9493 84.2314 52.9493C81.4409 52.9493 79.2749 52.1919 77.7334 50.677C76.192 49.1621 75.4213 47.0892 75.4213 44.4581C75.4213 42.6243 75.8066 40.9234 76.5773 39.3554C77.3481 37.7608 78.4111 36.4984 79.7665 35.5682C81.1485 34.638 82.7033 34.1729 84.4308 34.1729C85.9722 34.1729 87.208 34.638 88.1382 35.5682C89.0684 36.4718 89.5335 37.7076 89.5335 39.2756C89.5335 41.1094 88.8691 42.6907 87.5402 44.0196C86.238 45.3218 84.0188 46.3583 80.8828 47.129C81.5472 48.3516 82.8096 48.9628 84.6699 48.9628C85.8659 48.9628 87.2213 48.5509 88.7362 47.727C90.2776 46.8766 91.6065 45.7736 92.7227 44.4182C93.0416 44.0461 93.4004 43.8601 93.799 43.8601ZM83.753 38.0797C82.7697 38.0797 81.9325 38.6511 81.2416 39.7939C80.5771 40.9367 80.2449 42.3187 80.2449 43.9398V44.0196C81.8129 43.6475 83.0488 43.0894 83.9524 42.3452C84.856 41.6011 85.3078 40.7373 85.3078 39.754C85.3078 39.249 85.1616 38.8504 84.8693 38.5581C84.6035 38.2391 84.2314 38.0797 83.753 38.0797ZM94.4998 52.9493C93.4899 52.9493 92.7723 52.4178 92.3471 51.3547C91.9484 50.2917 91.7491 48.5908 91.7491 46.252C91.7491 42.797 92.2408 39.5148 93.2241 36.4053C93.4633 35.6346 93.8487 35.0765 94.3802 34.731C94.9383 34.3589 95.709 34.1729 96.6924 34.1729C97.2239 34.1729 97.596 34.2393 97.8086 34.3722C98.0212 34.5051 98.1275 34.7576 98.1275 35.1297C98.1275 35.5549 97.9282 36.5117 97.5295 37.9999C97.2638 39.063 97.0511 39.9932 96.8917 40.7905C96.7322 41.5878 96.5993 42.5711 96.493 43.7405C97.3701 41.4549 98.3534 39.5945 99.443 38.1594C100.533 36.7243 101.596 35.7011 102.632 35.0898C103.695 34.4785 104.665 34.1729 105.542 34.1729C107.27 34.1729 108.134 35.0366 108.134 36.7641C108.134 37.1096 108.014 37.9468 107.775 39.2756C107.562 40.3387 107.456 41.0031 107.456 41.2689C107.456 42.1991 107.788 42.6642 108.453 42.6642C109.197 42.6642 110.153 42.0795 111.323 40.9101C111.668 40.5646 112.027 40.3918 112.399 40.3918C112.745 40.3918 113.01 40.5513 113.196 40.8702C113.409 41.1626 113.515 41.5612 113.515 42.0662C113.515 43.0495 113.25 43.8202 112.718 44.3783C111.974 45.1491 111.097 45.8135 110.087 46.3716C109.104 46.9031 108.054 47.1689 106.938 47.1689C105.529 47.1689 104.453 46.8101 103.709 46.0925C102.991 45.375 102.632 44.4049 102.632 43.1824C102.632 42.7837 102.672 42.3851 102.752 41.9864C102.805 41.4549 102.832 41.0961 102.832 40.9101C102.832 40.4849 102.685 40.2722 102.393 40.2722C101.994 40.2722 101.463 40.7241 100.798 41.6277C100.161 42.5047 99.5228 43.6741 98.8849 45.1358C98.2471 46.5975 97.7288 48.1389 97.3302 49.7601C97.0379 51.0092 96.6924 51.8597 96.2937 52.3115C95.9216 52.7367 95.3237 52.9493 94.4998 52.9493ZM127.591 43.8601C127.936 43.8601 128.202 44.0196 128.388 44.3385C128.601 44.6574 128.707 45.0959 128.707 45.654C128.707 46.7171 128.455 47.541 127.95 48.1257C126.966 49.3216 125.571 50.4245 123.764 51.4345C121.983 52.4444 120.07 52.9493 118.023 52.9493C115.233 52.9493 113.067 52.1919 111.525 50.677C109.984 49.1621 109.213 47.0892 109.213 44.4581C109.213 42.6243 109.598 40.9234 110.369 39.3554C111.14 37.7608 112.203 36.4984 113.558 35.5682C114.94 34.638 116.495 34.1729 118.223 34.1729C119.764 34.1729 121 34.638 121.93 35.5682C122.86 36.4718 123.325 37.7076 123.325 39.2756C123.325 41.1094 122.661 42.6907 121.332 44.0196C120.03 45.3218 117.811 46.3583 114.675 47.129C115.339 48.3516 116.601 48.9628 118.462 48.9628C119.658 48.9628 121.013 48.5509 122.528 47.727C124.069 46.8766 125.398 45.7736 126.514 44.4182C126.833 44.0461 127.192 43.8601 127.591 43.8601ZM117.545 38.0797C116.562 38.0797 115.724 38.6511 115.033 39.7939C114.369 40.9367 114.037 42.3187 114.037 43.9398V44.0196C115.605 43.6475 116.841 43.0894 117.744 42.3452C118.648 41.6011 119.1 40.7373 119.1 39.754C119.1 39.249 118.953 38.8504 118.661 38.5581C118.395 38.2391 118.023 38.0797 117.545 38.0797ZM128.292 52.9493C127.282 52.9493 126.564 52.4178 126.139 51.3547C125.74 50.2917 125.541 48.5908 125.541 46.252C125.541 42.797 126.033 39.5148 127.016 36.4053C127.255 35.6346 127.64 35.0765 128.172 34.731C128.73 34.3589 129.501 34.1729 130.484 34.1729C131.016 34.1729 131.388 34.2393 131.6 34.3722C131.813 34.5051 131.919 34.7576 131.919 35.1297C131.919 35.5549 131.72 36.5117 131.321 37.9999C131.056 39.063 130.843 39.9932 130.684 40.7905C130.524 41.5878 130.391 42.5711 130.285 43.7405C131.162 41.4549 132.145 39.5945 133.235 38.1594C134.325 36.7243 135.388 35.7011 136.424 35.0898C137.487 34.4785 138.457 34.1729 139.334 34.1729C141.062 34.1729 141.925 35.0366 141.925 36.7641C141.925 37.8006 141.633 39.6743 141.048 42.3851C140.543 44.6973 140.291 46.2254 140.291 46.9696C140.291 48.0326 140.676 48.5642 141.447 48.5642C141.979 48.5642 142.603 48.2453 143.321 47.6074C144.065 46.943 145.048 45.8799 146.271 44.4182C146.59 44.0461 146.948 43.8601 147.347 43.8601C147.693 43.8601 147.958 44.0196 148.144 44.3385C148.357 44.6574 148.463 45.0959 148.463 45.654C148.463 46.7171 148.211 47.541 147.706 48.1257C146.563 49.5342 145.327 50.6903 143.998 51.5939C142.696 52.4975 141.208 52.9493 139.534 52.9493C138.178 52.9493 137.155 52.564 136.464 51.7932C135.773 50.9959 135.427 49.8531 135.427 48.3648C135.427 47.6207 135.613 46.2919 135.986 44.3783C136.331 42.704 136.504 41.5479 136.504 40.9101C136.504 40.4849 136.358 40.2722 136.065 40.2722C135.72 40.2722 135.228 40.7241 134.59 41.6277C133.979 42.5047 133.341 43.6741 132.677 45.1358C132.039 46.5975 131.521 48.1389 131.122 49.7601C130.83 51.0092 130.484 51.8597 130.086 52.3115C129.713 52.7367 129.115 52.9493 128.292 52.9493ZM150.46 31.5418C149.344 31.5418 148.507 31.2893 147.949 30.7844C147.391 30.2528 147.112 29.522 147.112 28.5918C147.112 27.6616 147.47 26.8909 148.188 26.2796C148.932 25.6418 149.849 25.3229 150.939 25.3229C151.922 25.3229 152.719 25.5621 153.331 26.0404C153.942 26.5188 154.247 27.1965 154.247 28.0736C154.247 29.1366 153.902 29.9871 153.211 30.6249C152.52 31.2362 151.603 31.5418 150.46 31.5418ZM150.141 52.9493C148.414 52.9493 147.151 52.3381 146.354 51.1155C145.583 49.893 145.198 48.2718 145.198 46.252C145.198 45.0561 145.344 43.5279 145.637 41.6675C145.956 39.7806 146.354 38.0265 146.833 36.4053C147.072 35.5549 147.391 34.9702 147.789 34.6513C148.188 34.3324 148.826 34.1729 149.703 34.1729C151.058 34.1729 151.736 34.6247 151.736 35.5283C151.736 36.1927 151.483 37.7342 150.979 40.1527C150.341 43.0761 150.022 45.0561 150.022 46.0925C150.022 46.8898 150.128 47.5011 150.341 47.9263C150.553 48.3516 150.912 48.5642 151.417 48.5642C151.895 48.5642 152.493 48.232 153.211 47.5675C153.929 46.9031 154.885 45.8534 156.081 44.4182C156.4 44.0461 156.759 43.8601 157.158 43.8601C157.503 43.8601 157.769 44.0196 157.955 44.3385C158.168 44.6574 158.274 45.0959 158.274 45.654C158.274 46.7171 158.021 47.541 157.516 48.1257C154.885 51.3414 152.427 52.9493 150.141 52.9493ZM171.991 48.604C173.081 48.8167 173.626 49.4146 173.626 50.398C173.626 51.0624 173.32 51.6604 172.709 52.1919C172.124 52.6968 171.274 52.9493 170.157 52.9493C168.244 52.9493 166.676 52.3646 165.453 51.1953C164.257 49.9993 163.659 48.4446 163.659 46.5311C163.659 45.4946 164.191 44.7504 165.254 44.2986C166.423 43.7937 167.26 43.2621 167.765 42.704C168.27 42.1193 168.523 41.415 168.523 40.5912C168.523 40.1128 168.417 39.754 168.204 39.5148C168.018 39.2756 167.779 39.156 167.486 39.156C166.769 39.156 165.972 39.6743 165.094 40.7108C164.244 41.7473 163.447 43.0894 162.703 44.7371C161.958 46.3583 161.374 48.0326 160.949 49.7601C160.656 51.0092 160.311 51.8597 159.912 52.3115C159.54 52.7367 158.942 52.9493 158.118 52.9493C157.294 52.9493 156.683 52.657 156.284 52.0723C155.912 51.461 155.66 50.5308 155.527 49.2817C155.394 48.0326 155.328 46.1988 155.328 43.7804C155.328 39.6876 155.739 35.422 156.563 30.9837C157.414 26.5454 158.65 22.8247 160.271 19.8215C161.919 16.7918 163.885 15.2769 166.171 15.2769C167.393 15.2769 168.377 15.8084 169.121 16.8715C169.892 17.908 170.277 19.2634 170.277 20.9377C170.277 23.622 169.493 26.4125 167.925 29.3094C166.357 32.1797 163.806 35.5416 160.271 39.3952C160.191 40.7772 160.151 42.1991 160.151 43.6608C161.427 40.3387 162.889 37.9335 164.536 36.4452C166.184 34.9303 167.726 34.1729 169.161 34.1729C170.49 34.1729 171.553 34.6247 172.35 35.5283C173.174 36.4319 173.586 37.5481 173.586 38.877C173.586 40.3387 173.214 41.6808 172.47 42.9033C171.725 44.1259 170.45 45.2155 168.642 46.1723C168.802 46.9696 169.121 47.5277 169.599 47.8466C170.104 48.1389 170.901 48.3914 171.991 48.604ZM165.334 19.2235C164.855 19.2235 164.324 19.9145 163.739 21.2965C163.154 22.6519 162.583 24.499 162.025 26.8377C161.493 29.1499 161.055 31.6747 160.709 34.4121C162.357 32.472 163.712 30.3591 164.776 28.0736C165.865 25.788 166.41 23.715 166.41 21.8546C166.41 21.0042 166.317 20.353 166.131 19.9012C165.945 19.4494 165.679 19.2235 165.334 19.2235Z" fill="white"/>
</svg>
