<svg width="33" height="33" viewBox="0 0 33 33" fill="none" xmlns="http://www.w3.org/2000/svg">
<mask id="mask0_1042_3237" style="mask-type:alpha" maskUnits="userSpaceOnUse" x="0" y="0" width="33" height="33">
<circle cx="16.0757" cy="16.0757" r="16.0757" fill="#D9D9D9"/>
</mask>
<g mask="url(#mask0_1042_3237)">
<mask id="mask1_1042_3237" style="mask-type:luminance" maskUnits="userSpaceOnUse" x="-13" y="-1" width="46" height="34">
<path d="M-12.249 -0.000213623H32.145V32.1512H-12.249V-0.000213623Z" fill="white"/>
</mask>
<g mask="url(#mask1_1042_3237)">
<path fill-rule="evenodd" clip-rule="evenodd" d="M-12.252 -0.000244141H32.1421V32.1511H-12.252V-0.000244141Z" fill="#F7FCFF"/>
<path fill-rule="evenodd" clip-rule="evenodd" d="M-12.252 19.6479V22.3272H32.1421V19.6479H-12.252Z" fill="#E31D1C"/>
<path fill-rule="evenodd" clip-rule="evenodd" d="M-12.252 24.5597V27.239H32.1421V24.5597H-12.252Z" fill="#E31D1C"/>
<path fill-rule="evenodd" clip-rule="evenodd" d="M-12.252 9.82367V12.5029H32.1421V9.82367H-12.252Z" fill="#E31D1C"/>
<path fill-rule="evenodd" clip-rule="evenodd" d="M-12.252 29.4718V32.1511H32.1421V29.4718H-12.252Z" fill="#E31D1C"/>
<path fill-rule="evenodd" clip-rule="evenodd" d="M-12.252 14.7358V17.4151H32.1421V14.7358H-12.252Z" fill="#E31D1C"/>
<path fill-rule="evenodd" clip-rule="evenodd" d="M-12.252 -0.000244141V2.67904H32.1421V-0.000244141H-12.252Z" fill="#E31D1C"/>
<path fill-rule="evenodd" clip-rule="evenodd" d="M-12.252 4.91187V7.59115H32.1421V4.91187H-12.252Z" fill="#E31D1C"/>
<path d="M-12.25 -0.000183105H15.4963V17.4151H-12.25V-0.000183105Z" fill="#2E42A5"/>
<path fill-rule="evenodd" clip-rule="evenodd" d="M-9.86431 3.93664L-10.8713 4.61835L-10.5314 3.40516L-11.4258 2.63633H-10.2575L-9.86573 1.64624L-9.40629 2.63633H-8.41039L-9.19289 3.40516L-8.88996 4.61835L-9.86431 3.93664ZM-4.31505 3.93664L-5.32208 4.61835L-4.9821 3.40516L-5.87652 2.63633H-4.70829L-4.31647 1.64624L-3.85703 2.63633H-2.86113L-3.64364 3.40516L-3.3407 4.61835L-4.31505 3.93664ZM0.22718 4.61835L1.2342 3.93664L2.20856 4.61835L1.90557 3.40516L2.68815 2.63633H1.6922L1.23279 1.64624L0.840971 2.63633H-0.32726L0.567156 3.40516L0.22718 4.61835ZM6.7835 3.93664L5.77645 4.61835L6.11648 3.40516L5.22194 2.63633H6.3902L6.78211 1.64624L7.24146 2.63633H8.23741L7.45483 3.40516L7.75781 4.61835L6.7835 3.93664ZM-10.8713 9.97691L-9.86431 9.2952L-8.88996 9.97691L-9.19289 8.76372L-8.41039 7.99489H-9.40629L-9.86573 7.0048L-10.2575 7.99489H-11.4258L-10.5314 8.76372L-10.8713 9.97691ZM-4.31505 9.2952L-5.32208 9.97691L-4.9821 8.76372L-5.87652 7.99489H-4.70829L-4.31647 7.0048L-3.85703 7.99489H-2.86113L-3.64364 8.76372L-3.3407 9.97691L-4.31505 9.2952ZM0.22718 9.97691L1.2342 9.2952L2.20856 9.97691L1.90557 8.76372L2.68815 7.99489H1.6922L1.23279 7.0048L0.840971 7.99489H-0.32726L0.567156 8.76372L0.22718 9.97691ZM6.7835 9.2952L5.77645 9.97691L6.11648 8.76372L5.22194 7.99489H6.3902L6.78211 7.0048L7.24146 7.99489H8.23741L7.45483 8.76372L7.75781 9.97691L6.7835 9.2952ZM-10.8713 15.3355L-9.86431 14.6537L-8.88996 15.3355L-9.19289 14.1223L-8.41039 13.3535H-9.40629L-9.86573 12.3634L-10.2575 13.3535H-11.4258L-10.5314 14.1223L-10.8713 15.3355ZM-4.31505 14.6537L-5.32208 15.3355L-4.9821 14.1223L-5.87652 13.3535H-4.70829L-4.31647 12.3634L-3.85703 13.3535H-2.86113L-3.64364 14.1223L-3.3407 15.3355L-4.31505 14.6537ZM0.22718 15.3355L1.2342 14.6537L2.20856 15.3355L1.90557 14.1223L2.68815 13.3535H1.6922L1.23279 12.3634L0.840971 13.3535H-0.32726L0.567156 14.1223L0.22718 15.3355ZM6.7835 14.6537L5.77645 15.3355L6.11648 14.1223L5.22194 13.3535H6.3902L6.78211 12.3634L7.24146 13.3535H8.23741L7.45483 14.1223L7.75781 15.3355L6.7835 14.6537ZM11.3257 4.61835L12.3328 3.93664L13.3071 4.61835L13.0041 3.40516L13.7867 2.63633H12.7907L12.3314 1.64624L11.9395 2.63633H10.7712L11.6657 3.40516L11.3257 4.61835ZM12.3328 9.2952L11.3257 9.97691L11.6657 8.76372L10.7712 7.99489H11.9395L12.3314 7.0048L12.7907 7.99489H13.7867L13.0041 8.76372L13.3071 9.97691L12.3328 9.2952ZM11.3257 15.3355L12.3328 14.6537L13.3071 15.3355L13.0041 14.1223L13.7867 13.3535H12.7907L12.3314 12.3634L11.9395 13.3535H10.7712L11.6657 14.1223L11.3257 15.3355ZM-7.08968 6.61592L-8.09671 7.29763L-7.75673 6.08444L-8.65115 5.31561H-7.48292L-7.0911 4.32552L-6.63166 5.31561H-5.63576L-6.41826 6.08444L-6.11533 7.29763L-7.08968 6.61592ZM-2.54745 7.29763L-1.54043 6.61592L-0.566072 7.29763L-0.869006 6.08444L-0.0865059 5.31561H-1.0824L-1.54184 4.32552L-1.93366 5.31561H-3.10189L-2.20747 6.08444L-2.54745 7.29763ZM4.00887 6.61592L3.00182 7.29763L3.34185 6.08444L2.44731 5.31561H3.61557L4.00749 4.32552L4.46683 5.31561H5.46278L4.6802 6.08444L4.98318 7.29763L4.00887 6.61592ZM-8.09671 12.6562L-7.08968 11.9745L-6.11533 12.6562L-6.41826 11.443L-5.63576 10.6742H-6.63166L-7.0911 9.68408L-7.48292 10.6742H-8.65115L-7.75673 11.443L-8.09671 12.6562ZM-1.54043 11.9745L-2.54745 12.6562L-2.20747 11.443L-3.10189 10.6742H-1.93366L-1.54184 9.68408L-1.0824 10.6742H-0.0865059L-0.869006 11.443L-0.566072 12.6562L-1.54043 11.9745ZM3.00182 12.6562L4.00887 11.9745L4.98318 12.6562L4.6802 11.443L5.46278 10.6742H4.46683L4.00749 9.68408L3.61557 10.6742H2.44731L3.34185 11.443L3.00182 12.6562ZM9.55813 6.61592L8.55108 7.29763L8.89111 6.08444L7.99657 5.31561H9.16483L9.55674 4.32552L10.0161 5.31561H11.012L10.2295 6.08444L10.5324 7.29763L9.55813 6.61592ZM8.55108 12.6562L9.55813 11.9745L10.5324 12.6562L10.2295 11.443L11.012 10.6742H10.0161L9.55674 9.68408L9.16483 10.6742H7.99657L8.89111 11.443L8.55108 12.6562Z" fill="#F7FCFF"/>
</g>
</g>
</svg>
