<svg width="21" height="21" viewBox="0 0 21 21" fill="none" xmlns="http://www.w3.org/2000/svg">
<path d="M10.0752 0.25C7.35673 0.25 7.01794 0.263127 5.95406 0.308132C4.8858 0.360639 4.16321 0.526285 3.52563 0.773815C2.86804 1.03135 2.30797 1.37327 1.75478 1.92958C1.19784 2.48278 0.852793 3.04285 0.599011 3.70043C0.35148 4.33801 0.185834 5.0606 0.133328 6.12886C0.0851966 7.19337 0.0751953 7.53153 0.0751953 10.25C0.0751953 12.9685 0.088322 13.3073 0.133328 14.3711C0.185834 15.4363 0.35148 16.162 0.599011 16.7996C0.856543 17.4571 1.19846 18.0172 1.75478 18.5704C2.30797 19.1274 2.86804 19.4724 3.52563 19.7262C4.16321 19.9706 4.88892 20.1394 5.95406 20.1919C7.01856 20.24 7.35673 20.25 10.0752 20.25C12.7937 20.25 13.1325 20.2369 14.1963 20.1919C15.2615 20.1394 15.9872 19.97 16.6248 19.7262C17.2823 19.4687 17.8424 19.1267 18.3956 18.5704C18.9526 18.0172 19.2976 17.4603 19.5514 16.7996C19.7958 16.162 19.9646 15.4363 20.0171 14.3711C20.0652 13.3066 20.0752 12.9685 20.0752 10.25C20.0752 7.53153 20.0621 7.19274 20.0171 6.12886C19.9646 5.06373 19.7952 4.33426 19.5514 3.70043C19.2938 3.04285 18.9519 2.48278 18.3956 1.92958C17.8424 1.37264 17.2855 1.0276 16.6248 0.773815C15.9872 0.526285 15.2615 0.360639 14.1963 0.308132C13.1318 0.260001 12.7937 0.25 10.0752 0.25ZM14.1188 2.10836C15.0921 2.15399 15.6221 2.31651 15.9741 2.45403C16.4435 2.63592 16.7717 2.85095 17.1267 3.20224C17.4749 3.55041 17.6899 3.88233 17.8718 4.35176C18.0093 4.70368 18.1718 5.23375 18.2175 6.20699C18.2625 7.26213 18.2756 7.58154 18.2756 10.2506C18.2756 12.9197 18.2625 13.2391 18.2137 14.2943C18.1612 15.2675 17.9987 15.7976 17.8618 16.1495C17.6724 16.6189 17.4611 16.9471 17.1123 17.3021C16.7604 17.6503 16.4254 17.8653 15.9597 18.0472C15.6121 18.1847 15.0746 18.3473 14.0976 18.3929C13.0368 18.4379 12.7243 18.451 10.0477 18.451C7.37111 18.451 7.05919 18.4379 5.99719 18.3891C5.02394 18.3366 4.487 18.1741 4.13508 18.0372C3.66002 17.8478 3.33435 17.6365 2.98556 17.2878C2.63364 16.9358 2.40986 16.6008 2.23734 16.1351C2.09732 15.7876 1.9373 15.25 1.88542 14.273C1.84979 13.2247 1.83291 12.8997 1.83291 10.2356C1.83291 7.57279 1.84979 7.24712 1.88542 6.18574C1.9373 5.20874 2.09732 4.67243 2.23734 4.32363C2.40986 3.84795 2.63427 3.52291 2.98556 3.17099C3.33373 2.82282 3.66002 2.59779 4.13508 2.42152C4.487 2.28463 5.01081 2.12211 5.98781 2.07335C7.04857 2.03522 8.45371 2.01493 10.0339 2.02147C11.6295 2.02808 13.1722 2.06798 14.1188 2.10836ZM10.0752 5.11748C7.23672 5.11748 4.94143 7.4159 4.94143 10.2512C4.94143 13.0897 7.23984 15.385 10.0752 15.385C12.9137 15.385 15.209 13.0866 15.209 10.2512C15.209 7.41277 12.9106 5.11748 10.0752 5.11748ZM10.0752 13.5848C8.23247 13.5848 6.74165 12.094 6.74165 10.2512C6.74165 8.40852 8.23247 6.91771 10.0752 6.91771C11.9179 6.91771 13.4087 8.40852 13.4087 10.2512C13.4087 12.094 11.9179 13.5848 10.0752 13.5848ZM16.616 4.91246C16.616 5.57692 16.0753 6.11323 15.414 6.11323C14.7495 6.11323 14.2132 5.57629 14.2132 4.91246C14.2132 4.25175 14.7533 3.71418 15.414 3.71418C16.0747 3.71418 16.616 4.25175 16.616 4.91246Z" fill="white"/>
</svg>
