<svg width="20" height="20" viewBox="0 0 20 20" fill="none" xmlns="http://www.w3.org/2000/svg">
<path d="M18.7508 2.14258H1.25084C1.15262 2.14258 1.07227 2.22294 1.07227 2.32115V3.74972C1.07227 3.84794 1.15262 3.92829 1.25084 3.92829H18.7508C18.8491 3.92829 18.9294 3.84794 18.9294 3.74972V2.32115C18.9294 2.22294 18.8491 2.14258 18.7508 2.14258ZM18.7508 16.0711H1.25084C1.15262 16.0711 1.07227 16.1515 1.07227 16.2497V17.6783C1.07227 17.7765 1.15262 17.8569 1.25084 17.8569H18.7508C18.8491 17.8569 18.9294 17.7765 18.9294 17.6783V16.2497C18.9294 16.1515 18.8491 16.0711 18.7508 16.0711ZM18.7508 9.10686H1.25084C1.15262 9.10686 1.07227 9.18722 1.07227 9.28544V10.714C1.07227 10.8122 1.15262 10.8926 1.25084 10.8926H18.7508C18.8491 10.8926 18.9294 10.8122 18.9294 10.714V9.28544C18.9294 9.18722 18.8491 9.10686 18.7508 9.10686Z" fill="#21449E"/>
</svg>
