<svg width="916" height="1747" viewBox="0 0 916 1747" fill="none" xmlns="http://www.w3.org/2000/svg">
<g clip-path="url(#clip0_3486_10282)">
<path d="M13.478 12.3478C6.03433 12.3478 0 6.81962 0 0.00029397V1747H916.507V4.57764e-05C916.507 6.81937 910.473 12.3475 903.029 12.3475C895.585 12.3475 889.551 6.81937 889.551 4.57764e-05C889.551 6.81937 883.517 12.3475 876.073 12.3475C868.629 12.3475 862.595 6.81933 862.595 0C862.595 6.81933 856.561 12.3475 849.117 12.3475C841.673 12.3475 835.639 6.81957 835.639 0.000247955C835.639 6.81957 829.605 12.3477 822.161 12.3477C814.717 12.3477 808.683 6.81957 808.683 0.000247955C808.683 6.81957 802.648 12.3477 795.205 12.3477C787.761 12.3477 781.727 6.81957 781.727 0.000247955C781.727 6.81957 775.692 12.3477 768.249 12.3477C760.805 12.3477 754.771 6.81962 754.771 0.000293732C754.771 6.81962 748.736 12.3478 741.293 12.3478C733.849 12.3478 727.815 6.81962 727.815 0.000293732C727.815 6.81962 721.78 12.3478 714.336 12.3478C706.893 12.3478 700.858 6.81962 700.858 0.000293732C700.858 6.81962 694.824 12.3478 687.38 12.3478C679.937 12.3478 673.902 6.81962 673.902 0.000293732C673.902 6.81962 667.868 12.3478 660.424 12.3478C652.981 12.3478 646.946 6.81962 646.946 0.000293732C646.946 6.81962 640.912 12.3478 633.468 12.3478C626.024 12.3478 619.99 6.81962 619.99 0.000293732C619.99 6.81962 613.956 12.3478 606.512 12.3478C599.068 12.3478 593.034 6.81962 593.034 0.000293732C593.034 6.81962 587 12.3478 579.556 12.3478C572.112 12.3478 566.078 6.81962 566.078 0.000293732C566.078 6.81962 560.044 12.3478 552.6 12.3478C545.156 12.3478 539.122 6.81962 539.122 0.000293732C539.122 6.81962 533.088 12.3478 525.644 12.3478C518.2 12.3478 512.166 6.81957 512.166 0.000247955C512.166 6.81957 506.131 12.3477 498.688 12.3477C491.244 12.3477 485.21 6.81957 485.21 0.000247955C485.21 6.81957 479.175 12.3477 471.732 12.3477C464.288 12.3477 458.254 6.81957 458.254 0.000247955C458.254 6.81957 452.219 12.3477 444.776 12.3477C437.332 12.3477 431.297 6.81962 431.297 0.00029397C431.297 6.81962 425.263 12.3478 417.819 12.3478C410.376 12.3478 404.341 6.81962 404.341 0.00029397C404.341 6.81962 398.307 12.3478 390.863 12.3478C383.42 12.3478 377.385 6.81962 377.385 0.00029397C377.385 6.81962 371.351 12.3478 363.907 12.3478C356.464 12.3478 350.429 6.81962 350.429 0.00029397C350.429 6.81962 344.395 12.3478 336.951 12.3478C329.507 12.3478 323.473 6.81962 323.473 0.00029397C323.473 6.81962 317.439 12.3478 309.995 12.3478C302.551 12.3478 296.517 6.81962 296.517 0.00029397C296.517 6.81962 290.483 12.3478 283.039 12.3478C275.595 12.3478 269.561 6.81962 269.561 0.00029397C269.561 6.81962 263.527 12.3478 256.083 12.3478C248.639 12.3478 242.605 6.81962 242.605 0.00029397C242.605 6.81962 236.571 12.3478 229.127 12.3478C221.683 12.3478 215.649 6.81962 215.649 0.00029397C215.649 6.81962 209.614 12.3478 202.171 12.3478C194.727 12.3478 188.693 6.81962 188.693 0.00029397C188.693 6.81962 182.658 12.3478 175.215 12.3478C167.771 12.3478 161.737 6.81962 161.737 0.00029397C161.737 6.81962 155.702 12.3478 148.259 12.3478C140.815 12.3478 134.78 6.81962 134.78 0.00029397C134.78 6.81962 128.746 12.3478 121.302 12.3478C113.859 12.3478 107.824 6.81962 107.824 0.00029397C107.824 6.81962 101.79 12.3478 94.3463 12.3478C86.9026 12.3478 80.8683 6.81962 80.8683 0.00029397C80.8683 6.81962 74.834 12.3478 67.3902 12.3478C59.9465 12.3478 53.9122 6.81962 53.9122 0.00029397C53.9122 6.81962 47.8779 12.3478 40.4341 12.3478C32.9904 12.3478 26.9561 6.81962 26.9561 0.00029397C26.9561 6.81962 20.9218 12.3478 13.478 12.3478Z" fill="url(#paint0_diamond_3486_10282)" stroke="white" stroke-width="2"/>
</g>
<defs>
<radialGradient id="paint0_diamond_3486_10282" cx="0" cy="0" r="1" gradientUnits="userSpaceOnUse" gradientTransform="translate(426 325.5) rotate(90) scale(1666 7200.21)">
<stop offset="0.421875" stop-color="#318BA8"/>
<stop offset="0.78125" stop-color="#41A5C5"/>
</radialGradient>
<clipPath id="clip0_3486_10282">
<rect width="916" height="1747" fill="white"/>
</clipPath>
</defs>
</svg>
