<svg width="1440" height="308" viewBox="0 0 1440 308" fill="none" xmlns="http://www.w3.org/2000/svg">
<g clip-path="url(#clip0_1312_1145)">
<path d="M311.25 184.995C157.125 196.618 158.625 70.2686 55.875 70.2686C31.4656 70.2686 7.7408 84.5993 0 109.367C0 142.36 0.000584852 190.566 0 248.839C45.75 264.086 48.75 323.342 311.25 258.48C518.817 207.192 591.375 315.844 848.625 258.48C1105.88 201.117 1180 345.819 1403.25 298.222C1426.5 293.265 1427.5 293.83 1440 290.83V0C1361.3 32.6924 1291.4 166.999 1231.88 166.999C1140.75 166.999 1042.12 99.5126 961.875 105.511C881.625 111.51 844.125 166.999 758.625 166.999C673.125 166.999 706.5 105.511 597.75 105.511C489 105.511 465.375 173.373 311.25 184.995Z" fill="url(#paint0_linear_1312_1145)"/>
<g filter="url(#filter0_d_1312_1145)">
<path d="M587.376 154.243C587.301 154.116 587.301 154.116 587.301 154.116C568.551 151.902 562.701 168.859 561.726 172.529C574.626 189.296 606.726 185.753 611.901 183.791C624.276 178.286 622.551 167.34 621.876 163.797C602.526 166.012 586.776 154.433 587.376 154.243Z" fill="url(#paint1_linear_1312_1145)"/>
<path d="M604.322 142.601C595.397 143.487 590.822 150.13 589.247 152.851C589.022 153.231 589.172 153.61 589.547 153.863C593.522 156.394 606.647 163.924 621.797 162.279C624.872 161.076 627.347 159.874 628.097 157.723C629.447 154.623 627.947 151.143 627.272 149.877C617.972 150.89 606.497 143.993 604.322 142.601Z" fill="url(#paint2_linear_1312_1145)"/>
<path d="M615.051 134.438C608.526 135.134 605.976 139.247 606.351 141.398C609.276 143.107 619.776 149.054 627.726 147.852C629.826 146.46 631.101 144.752 631.401 143.044C631.551 141.209 630.726 139.88 630.276 139.247C622.326 139.753 615.426 134.628 615.051 134.438Z" fill="url(#paint3_linear_1312_1145)"/>
<path d="M632.602 131.781C628.852 131.908 624.577 129.377 623.527 128.111C619.252 128.238 615.577 131.591 616.552 132.983C616.552 132.983 623.302 137.855 630.652 137.349C633.052 136.337 633.052 134.565 632.677 131.971C632.602 131.781 632.602 131.781 632.602 131.781Z" fill="url(#paint4_linear_1312_1145)"/>
<path d="M631.623 125.454C629.448 125.137 627.723 125.897 625.698 127.226C627.573 129.251 630.573 130.01 632.448 129.947C632.448 129.061 632.448 128.365 632.748 127.669C632.823 127.542 632.898 127.415 632.898 127.289C633.123 126.529 632.523 125.707 631.623 125.454Z" fill="url(#paint5_linear_1312_1145)"/>
</g>
<g filter="url(#filter1_d_1312_1145)">
<path d="M520.203 193.013C514.743 191.112 509.772 188.111 506.766 183.76C504.227 180.013 502.401 174.66 503.829 170.025C503.829 170.025 505.69 163.705 512.517 164.183C511.874 169.417 511.351 182.188 520.203 193.013Z" fill="url(#paint6_linear_1312_1145)"/>
<path d="M522.376 193.789C522.192 193.737 522.1 193.711 521.915 193.66C511.358 181.673 513.15 166.838 513.783 163.064C515.761 160.701 520.435 156.458 527.516 160.133C525.426 163.218 519.303 174.488 522.376 193.789Z" fill="url(#paint7_linear_1312_1145)"/>
<path d="M523.809 193.993C520.63 173.881 527.48 162.773 529.096 160.508C531.865 158.661 535.988 157.944 539.395 158.62C542.582 159.796 545.198 162.5 545.909 165.324C545.393 167.898 541.931 179.957 523.809 193.993Z" fill="url(#paint8_linear_1312_1145)"/>
<path d="M525.459 195.029C525.274 194.978 525.182 194.952 524.998 194.9C542.581 181.382 546.583 169.519 547.511 166.015C555.831 166.651 556.229 172.313 555.875 175.224C553.361 178.566 543.122 190.942 525.459 195.029Z" fill="url(#paint9_linear_1312_1145)"/>
<path d="M558.301 185.764C555.695 189.977 550.003 193.329 545.156 195.017C539.822 196.855 532.938 196.741 527.365 195.568C542.822 191.518 552.508 181.3 556.143 176.9C561.845 179.914 558.301 185.764 558.301 185.764Z" fill="url(#paint10_linear_1312_1145)"/>
</g>
<path d="M189.541 109.349C166.441 103.951 153.916 129.095 150.541 142.343C148.928 147.553 136.666 173.086 150.541 185.459C164.416 197.831 219.916 195.207 243.541 185.459C267.166 175.711 263.041 137.094 243.541 109.349C224.041 81.6051 218.416 116.098 189.541 109.349Z" fill="url(#paint11_linear_1312_1145)"/>
<path d="M239.498 159.46C220.351 154.993 209.969 175.8 207.172 186.761C205.835 191.073 195.671 212.201 207.172 222.439C218.672 232.677 264.675 230.505 284.257 222.439C303.839 214.373 287.676 209.719 271.513 186.761C255.35 163.804 263.431 165.045 239.498 159.46Z" fill="url(#paint12_linear_1312_1145)"/>
</g>
<defs>
<filter id="filter0_d_1312_1145" x="560.226" y="125.382" width="77.2197" height="69.1292" filterUnits="userSpaceOnUse" color-interpolation-filters="sRGB">
<feFlood flood-opacity="0" result="BackgroundImageFix"/>
<feColorMatrix in="SourceAlpha" type="matrix" values="0 0 0 0 0 0 0 0 0 0 0 0 0 0 0 0 0 0 127 0" result="hardAlpha"/>
<feOffset dx="1.5" dy="6"/>
<feGaussianBlur stdDeviation="1.5"/>
<feComposite in2="hardAlpha" operator="out"/>
<feColorMatrix type="matrix" values="0 0 0 0 0 0 0 0 0 0 0 0 0 0 0 0 0 0 0.25 0"/>
<feBlend mode="normal" in2="BackgroundImageFix" result="effect1_dropShadow_1312_1145"/>
<feBlend mode="normal" in="SourceGraphic" in2="effect1_dropShadow_1312_1145" result="shape"/>
</filter>
<filter id="filter1_d_1312_1145" x="501.828" y="147.87" width="69.5615" height="51.5574" filterUnits="userSpaceOnUse" color-interpolation-filters="sRGB">
<feFlood flood-opacity="0" result="BackgroundImageFix"/>
<feColorMatrix in="SourceAlpha" type="matrix" values="0 0 0 0 0 0 0 0 0 0 0 0 0 0 0 0 0 0 127 0" result="hardAlpha"/>
<feOffset dx="5.25" dy="-3.75"/>
<feGaussianBlur stdDeviation="3.375"/>
<feComposite in2="hardAlpha" operator="out"/>
<feColorMatrix type="matrix" values="0 0 0 0 0 0 0 0 0 0 0 0 0 0 0 0 0 0 0.45 0"/>
<feBlend mode="normal" in2="BackgroundImageFix" result="effect1_dropShadow_1312_1145"/>
<feBlend mode="normal" in="SourceGraphic" in2="effect1_dropShadow_1312_1145" result="shape"/>
</filter>
<linearGradient id="paint0_linear_1312_1145" x1="720.613" y1="-7.1094" x2="720.613" y2="309.218" gradientUnits="userSpaceOnUse">
<stop offset="0.660486" stop-color="#E3DB8F"/>
<stop offset="1" stop-color="#C8B075"/>
</linearGradient>
<linearGradient id="paint1_linear_1312_1145" x1="592.042" y1="153.918" x2="622.05" y2="185.198" gradientUnits="userSpaceOnUse">
<stop stop-color="#FC611E"/>
<stop offset="1" stop-color="#AB3F11"/>
</linearGradient>
<linearGradient id="paint2_linear_1312_1145" x1="608.892" y1="142.601" x2="627.767" y2="162.94" gradientUnits="userSpaceOnUse">
<stop stop-color="#FC611E"/>
<stop offset="1" stop-color="#AB3F11"/>
</linearGradient>
<linearGradient id="paint3_linear_1312_1145" x1="618.867" y1="134.438" x2="631.77" y2="147.401" gradientUnits="userSpaceOnUse">
<stop stop-color="#FC611E"/>
<stop offset="1" stop-color="#AB3F11"/>
</linearGradient>
<linearGradient id="paint4_linear_1312_1145" x1="624.626" y1="128.111" x2="633.437" y2="136.608" gradientUnits="userSpaceOnUse">
<stop stop-color="#FC611E"/>
<stop offset="1" stop-color="#AB3F11"/>
</linearGradient>
<linearGradient id="paint5_linear_1312_1145" x1="629.322" y1="125.382" x2="633.617" y2="129.083" gradientUnits="userSpaceOnUse">
<stop stop-color="#FC611E"/>
<stop offset="1" stop-color="#AB3F11"/>
</linearGradient>
<linearGradient id="paint6_linear_1312_1145" x1="518.903" y1="165.963" x2="512.001" y2="190.727" gradientUnits="userSpaceOnUse">
<stop stop-color="#383CA5"/>
<stop offset="1" stop-color="#B89D3E"/>
</linearGradient>
<linearGradient id="paint7_linear_1312_1145" x1="526.441" y1="159.517" x2="517.25" y2="192.354" gradientUnits="userSpaceOnUse">
<stop stop-color="#383CA5"/>
<stop offset="1" stop-color="#B89D3E"/>
</linearGradient>
<linearGradient id="paint8_linear_1312_1145" x1="539.387" y1="158.617" x2="529.038" y2="195.461" gradientUnits="userSpaceOnUse">
<stop stop-color="#383CA5"/>
<stop offset="1" stop-color="#B89D3E"/>
</linearGradient>
<linearGradient id="paint9_linear_1312_1145" x1="548.833" y1="166.071" x2="539.618" y2="198.993" gradientUnits="userSpaceOnUse">
<stop stop-color="#383CA5"/>
<stop offset="1" stop-color="#B89D3E"/>
</linearGradient>
<linearGradient id="paint10_linear_1312_1145" x1="549.757" y1="175.12" x2="542.856" y2="199.885" gradientUnits="userSpaceOnUse">
<stop stop-color="#383CA5"/>
<stop offset="1" stop-color="#B89D3E"/>
</linearGradient>
<linearGradient id="paint11_linear_1312_1145" x1="201.875" y1="98.3877" x2="201.75" y2="194.084" gradientUnits="userSpaceOnUse">
<stop stop-color="#C5C4C0"/>
<stop offset="0.9999" stop-color="#7E7D6C"/>
<stop offset="1" stop-color="#ADA878"/>
</linearGradient>
<linearGradient id="paint12_linear_1312_1145" x1="247.5" y1="158.841" x2="247.414" y2="229.549" gradientUnits="userSpaceOnUse">
<stop stop-color="#C5C4C0"/>
<stop offset="0.9999" stop-color="#7E7D6C"/>
<stop offset="1" stop-color="#ADA878"/>
</linearGradient>
<clipPath id="clip0_1312_1145">
<rect width="1440" height="308" fill="white"/>
</clipPath>
</defs>
</svg>
