<svg width="2718" height="1072" viewBox="0 0 2718 1072" fill="none" xmlns="http://www.w3.org/2000/svg">
<g clip-path="url(#clip0_1262_1127)">
<path d="M50.3203 46.0995C22.5292 46.0995 0 25.4601 0 0.000175476V1071.51H2717.3V0.000862122C2717.3 25.4608 2694.77 46.1002 2666.98 46.1002C2639.19 46.1002 2616.66 25.4608 2616.66 0.000862122C2616.66 25.4608 2594.13 46.1002 2566.34 46.1002C2538.54 46.1002 2516.02 25.4608 2516.02 0.000831604C2516.02 25.4608 2493.49 46.1002 2465.7 46.1002C2437.9 46.1002 2415.38 25.4608 2415.38 0.000831604C2415.38 25.4608 2392.85 46.1002 2365.05 46.1002C2337.26 46.1002 2314.73 25.4607 2314.73 0.000724792C2314.73 25.4607 2292.21 46.1001 2264.41 46.1001C2236.62 46.1001 2214.09 25.4607 2214.09 0.000724792C2214.09 25.4607 2191.56 46.1001 2163.77 46.1001C2135.98 46.1001 2113.45 25.4607 2113.45 0.000694275C2113.45 25.4607 2090.92 46.1001 2063.13 46.1001C2035.34 46.1001 2012.81 25.4607 2012.81 0.000694275C2012.81 25.4607 1990.28 46.1 1962.49 46.1C1934.7 46.1 1912.17 25.46 1912.17 0C1912.17 25.46 1889.64 46.0994 1861.85 46.0994C1834.06 46.0994 1811.53 25.46 1811.53 0C1811.53 25.46 1789 46.0994 1761.21 46.0994C1733.42 46.0994 1710.89 25.46 1710.89 0C1710.89 25.46 1688.36 46.0994 1660.57 46.0994C1632.78 46.0994 1610.25 25.4601 1610.25 0.000175476C1610.25 25.4601 1587.72 46.0995 1559.93 46.0995C1532.14 46.0995 1509.61 25.4601 1509.61 0.000175476C1509.61 25.4601 1487.08 46.0995 1459.29 46.0995C1431.5 46.0995 1408.97 25.4601 1408.97 0.000175476C1408.97 25.4601 1386.44 46.0995 1358.65 46.0995C1330.86 46.0995 1308.33 25.4601 1308.33 0.000175476C1308.33 25.4601 1285.8 46.0995 1258.01 46.0995C1230.22 46.0995 1207.69 25.4601 1207.69 0.000175476C1207.69 25.4601 1185.16 46.0995 1157.37 46.0995C1129.58 46.0995 1107.05 25.4601 1107.05 0.000175476C1107.05 25.4601 1084.52 46.0995 1056.73 46.0995C1028.94 46.0995 1006.41 25.4601 1006.41 0.000175476C1006.41 25.4601 983.877 46.0995 956.086 46.0995C928.295 46.0995 905.766 25.4601 905.766 0.000175476C905.766 25.4601 883.236 46.0995 855.445 46.0995C827.654 46.0995 805.125 25.4601 805.125 0.000175476C805.125 25.4601 782.596 46.0995 754.805 46.0995C727.014 46.0995 704.484 25.4601 704.484 0.000175476C704.484 25.4601 681.955 46.0995 654.164 46.0995C626.373 46.0995 603.844 25.4601 603.844 0.000175476C603.844 25.4601 581.315 46.0995 553.523 46.0995C525.732 46.0995 503.203 25.4601 503.203 0.000175476C503.203 25.4601 480.674 46.0995 452.883 46.0995C425.092 46.0995 402.562 25.4601 402.562 0.000175476C402.562 25.4601 380.033 46.0995 352.242 46.0995C324.451 46.0995 301.922 25.4601 301.922 0.000175476C301.922 25.4601 279.393 46.0995 251.602 46.0995C223.81 46.0995 201.281 25.4601 201.281 0.000175476C201.281 25.4601 178.752 46.0995 150.961 46.0995C123.17 46.0995 100.641 25.4601 100.641 0.000175476C100.641 25.4601 78.1115 46.0995 50.3203 46.0995Z" fill="url(#paint0_diamond_1262_1127)"/>
<path d="M2722.15 0.000862122C2722.15 -2.68074 2719.98 -4.85461 2717.3 -4.85461C2714.62 -4.85461 2712.44 -2.68074 2712.44 0.000862122H2722.15ZM-4.85547 0.000175476C-4.85547 28.5334 20.2567 50.955 50.3203 50.955V41.2441C24.8016 41.2441 4.85547 22.3869 4.85547 0.000175476H-4.85547ZM50.3203 50.955C80.3839 50.955 105.496 28.5334 105.496 0.000175476H95.7852C95.7852 22.3869 75.839 41.2441 50.3203 41.2441V50.955ZM397.707 0.000175476C397.707 28.5334 422.819 50.955 452.883 50.955V41.2441C427.364 41.2441 407.418 22.3869 407.418 0.000175476H397.707ZM452.883 50.955C482.946 50.955 508.059 28.5334 508.059 0.000175476H498.348C498.348 22.3869 478.402 41.2441 452.883 41.2441V50.955ZM196.426 0.000175476C196.426 28.5334 221.538 50.955 251.602 50.955V41.2441C226.083 41.2441 206.137 22.3869 206.137 0.000175476H196.426ZM251.602 50.955C281.665 50.955 306.777 28.5334 306.777 0.000175476H297.066C297.066 22.3869 277.12 41.2441 251.602 41.2441V50.955ZM598.988 0.000175476C598.988 28.5334 624.1 50.955 654.164 50.955V41.2441C628.645 41.2441 608.699 22.3869 608.699 0.000175476H598.988ZM654.164 50.955C684.228 50.955 709.34 28.5334 709.34 0.000175476H699.629C699.629 22.3869 679.683 41.2441 654.164 41.2441V50.955ZM95.7852 0.000175476C95.7852 28.5334 120.897 50.955 150.961 50.955V41.2441C125.442 41.2441 105.496 22.3869 105.496 0.000175476H95.7852ZM150.961 50.955C181.025 50.955 206.137 28.5334 206.137 0.000175476H196.426C196.426 22.3869 176.48 41.2441 150.961 41.2441V50.955ZM498.348 0.000175476C498.348 28.5334 523.46 50.955 553.523 50.955V41.2441C528.005 41.2441 508.059 22.3869 508.059 0.000175476H498.348ZM553.523 50.955C583.587 50.955 608.699 28.5334 608.699 0.000175476H598.988C598.988 22.3869 579.042 41.2441 553.523 41.2441V50.955ZM297.066 0.000175476C297.066 28.5334 322.179 50.955 352.242 50.955V41.2441C326.723 41.2441 306.777 22.3869 306.777 0.000175476H297.066ZM352.242 50.955C382.306 50.955 407.418 28.5334 407.418 0.000175476H397.707C397.707 22.3869 377.761 41.2441 352.242 41.2441V50.955ZM699.629 0.000175476C699.629 28.5334 724.741 50.955 754.805 50.955V41.2441C729.286 41.2441 709.34 22.3869 709.34 0.000175476H699.629ZM754.805 50.955C784.868 50.955 809.98 28.5334 809.98 0.000175476H800.27C800.27 22.3869 780.323 41.2441 754.805 41.2441V50.955ZM800.27 0.000175476C800.27 28.5334 825.382 50.955 855.445 50.955V41.2441C829.927 41.2441 809.98 22.3869 809.98 0.000175476H800.27ZM855.445 50.955C885.509 50.955 910.621 28.5334 910.621 0.000175476H900.91C900.91 22.3869 880.964 41.2441 855.445 41.2441V50.955ZM1202.83 0.000175476C1202.83 28.5334 1227.94 50.955 1258.01 50.955V41.2441C1232.49 41.2441 1212.54 22.3869 1212.54 0.000175476H1202.83ZM1258.01 50.955C1288.07 50.955 1313.18 28.5334 1313.18 0.000175476H1303.47C1303.47 22.3869 1283.53 41.2441 1258.01 41.2441V50.955ZM1001.55 0.000175476C1001.55 28.5334 1026.66 50.955 1056.73 50.955V41.2441C1031.21 41.2441 1011.26 22.3869 1011.26 0.000175476H1001.55ZM1056.73 50.955C1086.79 50.955 1111.9 28.5334 1111.9 0.000175476H1102.19C1102.19 22.3869 1082.25 41.2441 1056.73 41.2441V50.955ZM1404.11 0.000175476C1404.11 28.5334 1429.23 50.955 1459.29 50.955V41.2441C1433.77 41.2441 1413.82 22.3869 1413.82 0.000175476H1404.11ZM1459.29 50.955C1489.35 50.955 1514.46 28.5334 1514.46 0.000175476H1504.75C1504.75 22.3869 1484.81 41.2441 1459.29 41.2441V50.955ZM900.91 0.000175476C900.91 28.5334 926.022 50.955 956.086 50.955V41.2441C930.567 41.2441 910.621 22.3869 910.621 0.000175476H900.91ZM956.086 50.955C986.15 50.955 1011.26 28.5334 1011.26 0.000175476H1001.55C1001.55 22.3869 981.605 41.2441 956.086 41.2441V50.955ZM1303.47 0.000175476C1303.47 28.5334 1328.59 50.955 1358.65 50.955V41.2441C1333.13 41.2441 1313.18 22.3869 1313.18 0.000175476H1303.47ZM1358.65 50.955C1388.71 50.955 1413.82 28.5334 1413.82 0.000175476H1404.11C1404.11 22.3869 1384.17 41.2441 1358.65 41.2441V50.955ZM1102.19 0.000175476C1102.19 28.5334 1127.3 50.955 1157.37 50.955V41.2441C1131.85 41.2441 1111.9 22.3869 1111.9 0.000175476H1102.19ZM1157.37 50.955C1187.43 50.955 1212.54 28.5334 1212.54 0.000175476H1202.83C1202.83 22.3869 1182.89 41.2441 1157.37 41.2441V50.955ZM1504.75 0.000175476C1504.75 28.5334 1529.87 50.955 1559.93 50.955V41.2441C1534.41 41.2441 1514.46 22.3869 1514.46 0.000175476H1504.75ZM1559.93 50.955C1589.99 50.955 1615.11 28.5334 1615.11 0.000175476H1605.39C1605.39 22.3869 1585.45 41.2441 1559.93 41.2441V50.955ZM1706.04 0C1706.04 28.5332 1731.15 50.9548 1761.21 50.9548V41.2439C1735.69 41.2439 1715.75 22.3867 1715.75 0H1706.04ZM1761.21 50.9548C1791.27 50.9548 1816.39 28.5332 1816.39 0H1806.68C1806.68 22.3867 1786.73 41.2439 1761.21 41.2439V50.9548ZM1605.39 0.000175476C1605.39 28.5334 1630.51 50.9548 1660.57 50.9548V41.2439C1635.05 41.2439 1615.11 22.3869 1615.11 0.000175476H1605.39ZM1660.57 50.9548C1690.63 50.9548 1715.75 28.5332 1715.75 0H1706.04C1706.04 22.3867 1686.09 41.2439 1660.57 41.2439V50.9548ZM1806.68 0C1806.68 28.5332 1831.79 50.9548 1861.85 50.9548V41.2439C1836.33 41.2439 1816.39 22.3867 1816.39 0H1806.68ZM1861.85 50.9548C1891.92 50.9548 1917.03 28.5332 1917.03 0H1907.32C1907.32 22.3867 1887.37 41.2439 1861.85 41.2439V50.9548ZM2209.24 0.000724792C2209.24 28.534 2234.35 50.9556 2264.41 50.9556V41.2446C2238.9 41.2446 2218.95 22.3874 2218.95 0.000724792H2209.24ZM2264.41 50.9556C2294.48 50.9556 2319.59 28.534 2319.59 0.000724792H2309.88C2309.88 22.3874 2289.93 41.2446 2264.41 41.2446V50.9556ZM2108.6 0.000694275C2108.6 28.5339 2133.71 50.9555 2163.77 50.9555V41.2446C2138.25 41.2446 2118.31 22.3874 2118.31 0.000694275H2108.6ZM2163.77 50.9555C2193.84 50.9555 2218.95 28.534 2218.95 0.000724792H2209.24C2209.24 22.3874 2189.29 41.2446 2163.77 41.2446V50.9555ZM2007.96 0.000694275C2007.96 28.5339 2033.07 50.9555 2063.13 50.9555V41.2446C2037.61 41.2446 2017.67 22.3874 2017.67 0.000694275H2007.96ZM2063.13 50.9555C2093.2 50.9555 2118.31 28.5339 2118.31 0.000694275H2108.6C2108.6 22.3874 2088.65 41.2446 2063.13 41.2446V50.9555ZM1907.32 0C1907.32 28.5331 1932.43 50.9555 1962.49 50.9555V41.2446C1936.97 41.2446 1917.03 22.3868 1917.03 0H1907.32ZM1962.49 50.9555C1992.56 50.9555 2017.67 28.5339 2017.67 0.000694275H2007.96C2007.96 22.3874 1988.01 41.2446 1962.49 41.2446V50.9555ZM2611.8 0.000862122C2611.8 28.5341 2636.91 50.9557 2666.98 50.9557V41.2448C2641.46 41.2448 2621.51 22.3876 2621.51 0.000862122H2611.8ZM2666.98 50.9557C2697.04 50.9557 2722.15 28.5341 2722.15 0.000862122H2712.44C2712.44 22.3876 2692.5 41.2448 2666.98 41.2448V50.9557ZM2511.16 0.000831604C2511.16 28.5341 2536.27 50.9557 2566.34 50.9557V41.2447C2540.82 41.2447 2520.87 22.3875 2520.87 0.000831604H2511.16ZM2566.34 50.9557C2596.4 50.9557 2621.51 28.5341 2621.51 0.000862122H2611.8C2611.8 22.3876 2591.85 41.2447 2566.34 41.2447V50.9557ZM2410.52 0.000831604C2410.52 28.5341 2435.63 50.9557 2465.7 50.9557V41.2447C2440.18 41.2447 2420.23 22.3875 2420.23 0.000831604H2410.52ZM2465.7 50.9557C2495.76 50.9557 2520.87 28.5341 2520.87 0.000831604H2511.16C2511.16 22.3875 2491.21 41.2447 2465.7 41.2447V50.9557ZM2309.88 0.000724792C2309.88 28.5339 2334.99 50.9556 2365.05 50.9556V41.2447C2339.54 41.2447 2319.59 22.3874 2319.59 0.000724792H2309.88ZM2365.05 50.9556C2395.12 50.9556 2420.23 28.5341 2420.23 0.000831604H2410.52C2410.52 22.3875 2390.57 41.2447 2365.05 41.2447V50.9556Z" fill="white"/>
</g>
<defs>
<radialGradient id="paint0_diamond_1262_1127" cx="0" cy="0" r="1" gradientUnits="userSpaceOnUse" gradientTransform="translate(1144.39 811.966) rotate(89.9812) scale(811.966 2786.72)">
<stop offset="0.421875" stop-color="#318BA8"/>
<stop offset="0.78125" stop-color="#41A5C5"/>
</radialGradient>
<clipPath id="clip0_1262_1127">
<rect width="2717.3" height="1071.51" fill="white"/>
</clipPath>
</defs>
</svg>
