<svg width="24" height="29" viewBox="0 0 24 29" fill="none" xmlns="http://www.w3.org/2000/svg">
<path fill-rule="evenodd" clip-rule="evenodd" d="M18.778 10.3917C18.778 15.0586 14.9948 18.8418 10.3279 18.8418C5.66105 18.8418 1.8778 15.0586 1.8778 10.3917C1.8778 5.72483 5.66105 1.94159 10.3279 1.94159C14.9948 1.94159 18.778 5.72483 18.778 10.3917ZM15.4424 19.3664C13.9346 20.2275 12.1887 20.7196 10.3279 20.7196C4.62397 20.7196 0 16.0957 0 10.3917C0 4.68775 4.62397 0.0637817 10.3279 0.0637817C16.0319 0.0637817 20.6558 4.68775 20.6558 10.3917C20.6558 13.5593 19.2298 16.3938 16.9848 18.2883L24.0002 27.0577L22.5339 28.2307L15.4424 19.3664Z" fill="black"/>
</svg>
