<svg width="224" height="43" viewBox="0 0 224 43" fill="none" xmlns="http://www.w3.org/2000/svg">
<path d="M64.8374 16.2981L66.6041 10.5823C67.508 7.65804 71.6964 7.80584 72.3919 10.7865L74.0236 17.7797L80.6721 15.7614C83.5511 14.8874 85.7811 18.3232 83.8106 20.5969L79.0612 26.0769L81.4865 33.4876C82.394 36.2604 79.2103 38.5657 76.8591 36.8383L69.875 31.7072L63.0477 36.8276C60.7218 38.5721 57.5229 36.3194 58.3815 33.5417L60.6888 26.0769L53.8917 21.8448C51.3308 20.2502 52.4607 16.2981 55.4774 16.2981H64.8374Z" fill="url(#paint0_linear_815_2940)"/>
<path fill-rule="evenodd" clip-rule="evenodd" d="M69.8753 14.8164C70.2026 14.8164 70.4679 15.0817 70.4679 15.4091V22.5436L74.9944 20.7833C75.2994 20.6646 75.6429 20.8158 75.7615 21.1208C75.8802 21.4259 75.729 21.7694 75.424 21.888L70.818 23.6792L74.7943 28.9809C74.9907 29.2428 74.9376 29.6142 74.6758 29.8106C74.4139 30.007 74.0424 29.954 73.8461 29.6921L69.91 24.444L66.5199 29.6595C66.3415 29.9339 65.9744 30.0118 65.7 29.8334C65.4256 29.655 65.3477 29.288 65.5261 29.0135L68.985 23.6921L60.7653 20.4043C60.4614 20.2827 60.3136 19.9378 60.4351 19.6339C60.5567 19.33 60.9016 19.1822 61.2055 19.3037L69.2826 22.5346V15.4091C69.2826 15.0817 69.5479 14.8164 69.8753 14.8164Z" fill="#ED7C3D"/>
<path d="M20.3882 16.2981L22.1549 10.5823C23.0588 7.65804 27.2472 7.80584 27.9426 10.7865L29.5744 17.7797L36.2228 15.7614C39.1019 14.8874 41.3319 18.3232 39.3614 20.5969L34.612 26.0769L37.0373 33.4876C37.9447 36.2604 34.7611 38.5657 32.4099 36.8383L25.4258 31.7072L18.5985 36.8276C16.2726 38.5721 13.0737 36.3194 13.9323 33.5417L16.2396 26.0769L9.4425 21.8448C6.88161 20.2502 8.01144 16.2981 11.0282 16.2981H20.3882Z" fill="url(#paint1_linear_815_2940)"/>
<path fill-rule="evenodd" clip-rule="evenodd" d="M25.426 14.8164C25.7533 14.8164 26.0187 15.0817 26.0187 15.4091V22.5436L30.5451 20.7833C30.8502 20.6646 31.1937 20.8158 31.3123 21.1208C31.4309 21.4259 31.2798 21.7694 30.9748 21.888L26.3688 23.6792L30.3451 28.9809C30.5415 29.2428 30.4884 29.6142 30.2266 29.8106C29.9647 30.007 29.5932 29.954 29.3968 29.6921L25.4608 24.444L22.0707 29.6595C21.8923 29.9339 21.5252 30.0118 21.2508 29.8334C20.9763 29.655 20.8985 29.288 21.0769 29.0135L24.5358 23.6921L16.3161 20.4043C16.0122 20.2827 15.8643 19.9378 15.9859 19.6339C16.1075 19.33 16.4524 19.1822 16.7563 19.3037L24.8334 22.5346V15.4091C24.8334 15.0817 25.0987 14.8164 25.426 14.8164Z" fill="#ED7C3D"/>
<path d="M109.288 16.2981L111.054 10.5823C111.958 7.65804 116.147 7.80584 116.842 10.7865L118.474 17.7797L125.122 15.7614C128.001 14.8874 130.231 18.3232 128.261 20.5969L123.511 26.0769L125.937 33.4876C126.844 36.2604 123.66 38.5657 121.309 36.8383L114.325 31.7072L107.498 36.8276C105.172 38.5721 101.973 36.3194 102.832 33.5417L105.139 26.0769L98.3419 21.8448C95.781 20.2502 96.9109 16.2981 99.9276 16.2981H109.288Z" fill="url(#paint2_linear_815_2940)"/>
<path fill-rule="evenodd" clip-rule="evenodd" d="M114.325 14.8164C114.653 14.8164 114.918 15.0817 114.918 15.4091V22.5436L119.445 20.7833C119.75 20.6646 120.093 20.8158 120.212 21.1208C120.33 21.4259 120.179 21.7694 119.874 21.888L115.268 23.6792L119.245 28.9809C119.441 29.2428 119.388 29.6142 119.126 29.8106C118.864 30.007 118.493 29.954 118.296 29.6921L114.36 24.444L110.97 29.6595C110.792 29.9339 110.425 30.0118 110.15 29.8334C109.876 29.655 109.798 29.288 109.976 29.0135L113.435 23.6921L105.215 20.4043C104.912 20.2827 104.764 19.9378 104.885 19.6339C105.007 19.33 105.352 19.1822 105.656 19.3037L113.733 22.5346V15.4091C113.733 15.0817 113.998 14.8164 114.325 14.8164Z" fill="#ED7C3D"/>
<path d="M153.737 16.2981L155.504 10.5823C156.407 7.65804 160.596 7.80584 161.291 10.7865L162.923 17.7797L169.571 15.7614C172.451 14.8874 174.681 18.3232 172.71 20.5969L167.961 26.0769L170.386 33.4876C171.293 36.2604 168.11 38.5657 165.758 36.8383L158.774 31.7072L151.947 36.8276C149.621 38.5721 146.422 36.3194 147.281 33.5417L149.588 26.0769L142.791 21.8448C140.23 20.2502 141.36 16.2981 144.377 16.2981H153.737Z" fill="url(#paint3_linear_815_2940)"/>
<path fill-rule="evenodd" clip-rule="evenodd" d="M158.775 14.8164C159.102 14.8164 159.367 15.0817 159.367 15.4091V22.5436L163.894 20.7833C164.199 20.6646 164.542 20.8158 164.661 21.1208C164.78 21.4259 164.628 21.7694 164.323 21.888L159.717 23.6792L163.694 28.9809C163.89 29.2428 163.837 29.6142 163.575 29.8106C163.313 30.007 162.942 29.954 162.745 29.6921L158.809 24.444L155.419 29.6595C155.241 29.9339 154.874 30.0118 154.599 29.8334C154.325 29.655 154.247 29.288 154.425 29.0135L157.884 23.6921L149.665 20.4043C149.361 20.2827 149.213 19.9378 149.335 19.6339C149.456 19.33 149.801 19.1822 150.105 19.3037L158.182 22.5346V15.4091C158.182 15.0817 158.447 14.8164 158.775 14.8164Z" fill="#ED7C3D"/>
<path d="M198.186 16.2981L199.953 10.5823C200.857 7.65804 205.045 7.80584 205.74 10.7865L207.372 17.7797L214.021 15.7614C216.9 14.8874 219.13 18.3232 217.159 20.5969L212.41 26.0769L214.835 33.4876C215.743 36.2604 212.559 38.5657 210.208 36.8383L203.224 31.7072L196.396 36.8276C194.07 38.5721 190.872 36.3194 191.73 33.5417L194.037 26.0769L187.24 21.8448C184.679 20.2502 185.809 16.2981 188.826 16.2981H198.186Z" fill="url(#paint4_linear_815_2940)"/>
<path fill-rule="evenodd" clip-rule="evenodd" d="M203.224 14.8164C203.551 14.8164 203.817 15.0817 203.817 15.4091V22.5436L208.343 20.7833C208.648 20.6646 208.992 20.8158 209.11 21.1208C209.229 21.4259 209.078 21.7694 208.773 21.888L204.167 23.6792L208.143 28.9809C208.339 29.2428 208.286 29.6142 208.024 29.8106C207.763 30.007 207.391 29.954 207.195 29.6921L203.259 24.444L199.869 29.6595C199.69 29.9339 199.323 30.0118 199.049 29.8334C198.774 29.655 198.696 29.288 198.875 29.0135L202.334 23.6921L194.114 20.4043C193.81 20.2827 193.662 19.9378 193.784 19.6339C193.905 19.33 194.25 19.1822 194.554 19.3037L202.631 22.5346V15.4091C202.631 15.0817 202.897 14.8164 203.224 14.8164Z" fill="#ED7C3D"/>
<defs>
<linearGradient id="paint0_linear_815_2940" x1="67.8007" y1="1.90212e-08" x2="68.097" y2="37.3374" gradientUnits="userSpaceOnUse">
<stop stop-color="#FFE03B"/>
<stop offset="0.0001" stop-color="#FFE03B"/>
<stop offset="0.621573" stop-color="#FFE03B"/>
<stop offset="1" stop-color="#FFBC3B"/>
</linearGradient>
<linearGradient id="paint1_linear_815_2940" x1="23.3515" y1="1.90212e-08" x2="23.6478" y2="37.3374" gradientUnits="userSpaceOnUse">
<stop stop-color="#FFE03B"/>
<stop offset="0.0001" stop-color="#FFE03B"/>
<stop offset="0.621573" stop-color="#FFE03B"/>
<stop offset="1" stop-color="#FFBC3B"/>
</linearGradient>
<linearGradient id="paint2_linear_815_2940" x1="112.251" y1="1.90212e-08" x2="112.547" y2="37.3374" gradientUnits="userSpaceOnUse">
<stop stop-color="#FFE03B"/>
<stop offset="0.0001" stop-color="#FFE03B"/>
<stop offset="0.621573" stop-color="#FFE03B"/>
<stop offset="1" stop-color="#FFBC3B"/>
</linearGradient>
<linearGradient id="paint3_linear_815_2940" x1="156.7" y1="1.90212e-08" x2="156.996" y2="37.3374" gradientUnits="userSpaceOnUse">
<stop stop-color="#FFE03B"/>
<stop offset="0.0001" stop-color="#FFE03B"/>
<stop offset="0.621573" stop-color="#FFE03B"/>
<stop offset="1" stop-color="#FFBC3B"/>
</linearGradient>
<linearGradient id="paint4_linear_815_2940" x1="201.149" y1="1.90212e-08" x2="201.446" y2="37.3374" gradientUnits="userSpaceOnUse">
<stop stop-color="#FFE03B"/>
<stop offset="0.0001" stop-color="#FFE03B"/>
<stop offset="0.621573" stop-color="#FFE03B"/>
<stop offset="1" stop-color="#FFBC3B"/>
</linearGradient>
</defs>
</svg>
