<svg width="22" height="22" viewBox="0 0 22 22" fill="none" xmlns="http://www.w3.org/2000/svg">
<g clip-path="url(#clip0_3097_8635)">
<path d="M6.62957 13.6272H7.78113C8.03158 13.6272 8.26975 13.5069 8.41707 13.3031L11.0001 9.73303L13.5831 13.3031C13.7305 13.5069 13.9662 13.6272 14.2191 13.6272H15.3706C15.5302 13.6272 15.6235 13.4455 15.5302 13.3154L11.1597 7.27522C11.0811 7.16718 10.9215 7.16718 10.843 7.27522L6.47243 13.3154C6.37667 13.4455 6.46997 13.6272 6.62957 13.6272Z" fill="#3533B0"/>
<path d="M11 22C17.0746 22 22 17.0746 22 11C22 4.92545 17.0746 0 11 0C4.92545 0 0 4.92545 0 11C0 17.0746 4.92545 22 11 22ZM11 1.86607C16.0433 1.86607 20.1339 5.9567 20.1339 11C20.1339 16.0433 16.0433 20.1339 11 20.1339C5.9567 20.1339 1.86607 16.0433 1.86607 11C1.86607 5.9567 5.9567 1.86607 11 1.86607Z" fill="#3533B0"/>
</g>
<defs>
<clipPath id="clip0_3097_8635">
<rect width="22" height="22" fill="white" transform="matrix(-1 0 0 -1 22 22)"/>
</clipPath>
</defs>
</svg>
