<svg width="22" height="22" viewBox="0 0 22 22" fill="none" xmlns="http://www.w3.org/2000/svg">
<g clip-path="url(#clip0_3097_8702)">
<path d="M15.3704 8.37277H14.2189C13.9684 8.37277 13.7303 8.49309 13.5829 8.69688L10.9999 12.267L8.41686 8.69688C8.26954 8.49309 8.03382 8.37277 7.78092 8.37277H6.62936C6.46976 8.37277 6.37645 8.55447 6.46976 8.6846L10.8403 14.7248C10.9189 14.8328 11.0785 14.8328 11.157 14.7248L15.5276 8.6846C15.6233 8.55447 15.53 8.37277 15.3704 8.37277Z" fill="#3533B0"/>
<path d="M11 0C4.92545 0 0 4.92545 0 11C0 17.0746 4.92545 22 11 22C17.0746 22 22 17.0746 22 11C22 4.92545 17.0746 0 11 0ZM11 20.1339C5.9567 20.1339 1.86607 16.0433 1.86607 11C1.86607 5.9567 5.9567 1.86607 11 1.86607C16.0433 1.86607 20.1339 5.9567 20.1339 11C20.1339 16.0433 16.0433 20.1339 11 20.1339Z" fill="#3533B0"/>
</g>
<defs>
<clipPath id="clip0_3097_8702">
<rect width="22" height="22" fill="white"/>
</clipPath>
</defs>
</svg>
