<svg width="28" height="28" viewBox="0 0 28 28" fill="none" xmlns="http://www.w3.org/2000/svg">
<path d="M23.6733 4.32687C21.1078 1.7614 17.6283 0.320129 14.0002 0.320129C10.3721 0.320129 6.89253 1.7614 4.32705 4.32687C1.76158 6.89234 0.320313 10.3719 0.320313 14C0.320312 17.6281 1.76158 21.1077 4.32705 23.6731C6.89253 26.2386 10.3721 27.6799 14.0002 27.6799C17.6283 27.6799 21.1078 26.2386 23.6733 23.6731C26.2388 21.1077 27.68 17.6281 27.68 14C27.68 10.3719 26.2388 6.89234 23.6733 4.32687ZM14.0002 25.8559C7.46287 25.8559 2.14432 20.5373 2.14432 14C2.14432 7.46269 7.46287 2.14414 14.0002 2.14414C20.5375 2.14414 25.856 7.46269 25.856 14C25.856 20.5373 20.5375 25.8559 14.0002 25.8559Z" fill="black" fill-opacity="0.5"/>
<path d="M19.3715 7.03046L14.252 12.3633L9.13246 7.03046L7.8125 8.40537L12.9321 13.7382L7.8125 19.0712L9.13246 20.4461L14.252 15.1132L19.3715 20.4461L20.6914 19.0712L15.5719 13.7382L20.6914 8.40537L19.3715 7.03046Z" fill="black" fill-opacity="0.5"/>
</svg>
