<svg width="2726" height="61" viewBox="0 0 2726 61" fill="none" xmlns="http://www.w3.org/2000/svg">
<path d="M6 0C6 30.2376 30.5124 54.75 60.75 54.75C90.9876 54.75 115.5 30.2376 115.5 0C115.5 30.2376 140.012 54.75 170.25 54.75C200.488 54.75 225 30.2376 225 0C225 30.2376 249.512 54.75 279.75 54.75C309.988 54.75 334.5 30.2376 334.5 0C334.5 30.2376 359.012 54.75 389.25 54.75C419.488 54.75 444 30.2376 444 0C444 30.2376 468.512 54.75 498.75 54.75C528.988 54.75 553.5 30.2376 553.5 0C553.5 30.2376 578.012 54.75 608.25 54.75C638.488 54.75 663 30.2376 663 0C663 30.2376 687.512 54.75 717.75 54.75C747.988 54.75 772.5 30.2376 772.5 0C772.5 30.2376 797.012 54.75 827.25 54.75C857.488 54.75 882 30.2376 882 0C882 30.2376 906.512 54.75 936.75 54.75C966.988 54.75 991.5 30.2376 991.5 0C991.5 30.2376 1016.01 54.75 1046.25 54.75C1076.49 54.75 1101 30.2376 1101 0C1101 30.2376 1125.51 54.75 1155.75 54.75C1185.99 54.75 1210.5 30.2376 1210.5 0C1210.5 30.2376 1235.01 54.75 1265.25 54.75C1295.49 54.75 1320 30.2376 1320 0C1320 30.2376 1344.51 54.75 1374.75 54.75C1404.99 54.75 1429.5 30.2376 1429.5 0C1429.5 30.2376 1454.01 54.75 1484.25 54.75C1514.49 54.75 1539 30.2376 1539 0C1539 30.2376 1563.51 54.75 1593.75 54.75C1623.99 54.75 1648.5 30.2376 1648.5 0C1648.5 30.2376 1673.01 54.75 1703.25 54.75C1733.49 54.75 1758 30.2376 1758 0C1758 30.2376 1782.51 54.75 1812.75 54.75C1842.99 54.75 1867.5 30.2376 1867.5 0C1867.5 30.2376 1892.01 54.75 1922.25 54.75C1952.49 54.75 1977 30.2376 1977 0C1977 30.2376 2001.51 54.75 2031.75 54.75C2061.99 54.75 2086.5 30.2376 2086.5 0C2086.5 30.2376 2111.01 54.75 2141.25 54.75C2171.49 54.75 2196 30.2376 2196 0C2196 30.2376 2220.51 54.75 2250.75 54.75C2280.99 54.75 2305.5 30.2376 2305.5 0C2305.5 30.2376 2330.01 54.75 2360.25 54.75C2390.49 54.75 2415 30.2376 2415 0C2415 30.2376 2439.51 54.75 2469.75 54.75C2499.99 54.75 2524.5 30.2376 2524.5 0C2524.5 30.2376 2549.01 54.75 2579.25 54.75C2609.49 54.75 2634 30.2376 2634 0C2634 30.2376 2658.51 54.75 2688.75 54.75C2701.48 54.75 2713.2 50.4035 2722.5 43.1133" stroke="white" stroke-width="10.5658"/>
</svg>
