<svg width="2724" height="70" viewBox="0 0 2724 70" fill="none" xmlns="http://www.w3.org/2000/svg">
<path d="M6 0C6 35.3462 34.1081 64 68.7812 64C103.454 64 131.562 35.3462 131.562 0C131.562 35.3462 159.671 64 194.344 64C229.017 64 257.125 35.3462 257.125 0C257.125 35.3462 285.233 64 319.906 64C354.579 64 382.688 35.3462 382.688 0C382.688 35.3462 410.796 64 445.469 64C480.142 64 508.25 35.3462 508.25 0C508.25 35.3462 536.358 64 571.031 64C605.704 64 633.812 35.3462 633.812 0C633.812 35.3462 661.921 64 696.594 64C731.267 64 759.375 35.3462 759.375 0C759.375 35.3462 787.483 64 822.156 64C856.829 64 884.938 35.3462 884.938 0C884.938 35.3462 913.046 64 947.719 64C982.392 64 1010.5 35.3462 1010.5 0C1010.5 35.3462 1038.61 64 1073.28 64C1107.95 64 1136.06 35.3462 1136.06 0C1136.06 35.3462 1164.17 64 1198.84 64C1233.52 64 1261.62 35.3462 1261.62 0C1261.62 35.3462 1289.73 64 1324.41 64C1359.08 64 1387.19 35.3462 1387.19 0C1387.19 35.3462 1415.3 64 1449.97 64C1484.64 64 1512.75 35.3462 1512.75 0C1512.75 35.3462 1540.86 64 1575.53 64C1610.2 64 1638.31 35.3462 1638.31 0C1638.31 35.3462 1666.42 64 1701.09 64C1735.77 64 1763.88 35.3462 1763.88 0C1763.88 35.3462 1791.98 64 1826.66 64C1861.33 64 1889.44 35.3462 1889.44 0C1889.44 35.3462 1917.55 64 1952.22 64C1986.89 64 2015 35.3462 2015 0C2015 35.3462 2043.11 64 2077.78 64C2112.45 64 2140.56 35.3462 2140.56 0C2140.56 35.3462 2168.67 64 2203.34 64C2238.02 64 2266.12 35.3462 2266.12 0C2266.12 35.3462 2294.23 64 2328.91 64C2363.58 64 2391.69 35.3462 2391.69 0C2391.69 35.3462 2419.8 64 2454.47 64C2489.14 64 2517.25 35.3462 2517.25 0C2517.25 35.3462 2545.36 64 2580.03 64C2614.7 64 2642.81 35.3462 2642.81 0C2642.81 35.3462 2670.92 64 2705.59 64C2711.45 64 2717.12 63.1823 2722.5 61.6527" stroke="white" stroke-width="10.5658"/>
</svg>
