<svg width="37" height="37" viewBox="0 0 37 37" fill="none" xmlns="http://www.w3.org/2000/svg">
<path d="M31.1373 5.34232C27.7167 1.92169 23.0773 -3.60422e-08 18.2398 0C13.4023 3.60422e-08 8.76295 1.92169 5.34232 5.34232C1.92169 8.76295 3.60422e-08 13.4023 0 18.2398C-3.60422e-08 23.0773 1.92169 27.7167 5.34232 31.1373C8.76295 34.558 13.4023 36.4797 18.2398 36.4797C23.0773 36.4797 27.7167 34.558 31.1373 31.1373C34.558 27.7167 36.4797 23.0773 36.4797 18.2398C36.4797 13.4023 34.558 8.76295 31.1373 5.34232ZM18.2398 34.0476C9.52341 34.0476 2.43201 26.9562 2.43201 18.2398C2.43201 9.52341 9.52341 2.43201 18.2398 2.43201C26.9562 2.43201 34.0476 9.52341 34.0476 18.2398C34.0476 26.9562 26.9562 34.0476 18.2398 34.0476Z" fill="black" fill-opacity="0.5"/>
<path d="M25.2373 9.16016L18.5674 16.108L11.8974 9.16016L10.1777 10.9515L16.8477 17.8993L10.1777 24.8473L11.8974 26.6386L18.5674 19.6907L25.2373 26.6386L26.957 24.8473L20.287 17.8993L26.957 10.9515L25.2373 9.16016Z" fill="black" fill-opacity="0.5"/>
</svg>
